<?xml version="1.0" encoding="UTF-8"?>
<svg id="Capa_1" data-name="Capa 1" xmlns="http://www.w3.org/2000/svg" viewBox="0 0 175.66 398.41">
  <defs>
    <style>
      .cls-1 {
        fill: #a4c780;
      }

      .cls-1, .cls-2, .cls-3, .cls-4, .cls-5, .cls-6, .cls-7, .cls-8, .cls-9, .cls-10, .cls-11, .cls-12, .cls-13, .cls-14, .cls-15, .cls-16, .cls-17, .cls-18, .cls-19, .cls-20, .cls-21, .cls-22, .cls-23, .cls-24, .cls-25, .cls-26, .cls-27, .cls-28, .cls-29, .cls-30, .cls-31, .cls-32, .cls-33, .cls-34, .cls-35, .cls-36, .cls-37, .cls-38, .cls-39, .cls-40, .cls-41, .cls-42, .cls-43, .cls-44, .cls-45, .cls-46, .cls-47, .cls-48, .cls-49, .cls-50, .cls-51, .cls-52, .cls-53, .cls-54, .cls-55, .cls-56, .cls-57, .cls-58, .cls-59, .cls-60, .cls-61, .cls-62, .cls-63, .cls-64, .cls-65, .cls-66, .cls-67, .cls-68, .cls-69, .cls-70, .cls-71, .cls-72 {
        stroke-width: 0px;
      }

      .cls-2 {
        fill: #d881b0;
      }

      .cls-3 {
        fill: #5d81bc;
      }

      .cls-4 {
        fill: #333839;
      }

      .cls-5 {
        fill: #000;
      }

      .cls-6 {
        fill: #b7b75d;
      }

      .cls-7 {
        fill: #0b0f13;
      }

      .cls-8 {
        fill: #9da027;
      }

      .cls-9 {
        fill: #314795;
      }

      .cls-10 {
        fill: #a4c97f;
      }

      .cls-11 {
        fill: #0d0c10;
      }

      .cls-12 {
        fill: #935e6b;
      }

      .cls-13 {
        fill: #503268;
      }

      .cls-14 {
        fill: #6e9acd;
      }

      .cls-15 {
        fill: #626653;
      }

      .cls-16 {
        fill: #a6bd4d;
      }

      .cls-17 {
        fill: #3857a0;
      }

      .cls-18 {
        fill: #82a9d5;
      }

      .cls-19 {
        fill: #e6e04c;
      }

      .cls-20 {
        fill: #53336c;
      }

      .cls-21 {
        fill: #6e9acc;
      }

      .cls-22 {
        fill: #984992;
      }

      .cls-23 {
        fill: #4e6fb0;
      }

      .cls-24 {
        fill: #bd5c9b;
      }

      .cls-25 {
        fill: #be5b9a;
      }

      .cls-26 {
        fill: #9e428f;
      }

      .cls-27 {
        fill: #a0408e;
      }

      .cls-28 {
        fill: #8a4f96;
      }

      .cls-29 {
        fill: #223489;
      }

      .cls-30 {
        fill: #24368a;
      }

      .cls-31 {
        fill: #462460;
      }

      .cls-32 {
        fill: #496bad;
      }

      .cls-33 {
        fill: #647222;
      }

      .cls-34 {
        fill: #7e6628;
      }

      .cls-35 {
        fill: #25358a;
      }

      .cls-36 {
        fill: #4c4719;
      }

      .cls-37 {
        fill: #d781b0;
      }

      .cls-38 {
        fill: #7a2455;
      }

      .cls-39 {
        fill: #130e20;
      }

      .cls-40 {
        fill: #bd5b9a;
      }

      .cls-41 {
        fill: #905096;
      }

      .cls-42 {
        fill: #97646c;
      }

      .cls-43 {
        fill: #543071;
      }

      .cls-44 {
        fill: #5a3174;
      }

      .cls-45 {
        fill: #45245f;
      }

      .cls-46 {
        fill: #a7c877;
      }

      .cls-47 {
        fill: #2b1f47;
      }

      .cls-48 {
        fill: #1a171b;
      }

      .cls-49 {
        fill: #79652d;
      }

      .cls-50 {
        fill: #c799ba;
      }

      .cls-51 {
        fill: #bfc73a;
      }

      .cls-52 {
        fill: #7a833a;
      }

      .cls-53 {
        fill: #7a2454;
      }

      .cls-54 {
        fill: #ab9672;
      }

      .cls-55 {
        fill: #8cb9df;
      }

      .cls-56 {
        fill: #e8e572;
      }

      .cls-57 {
        fill: #24232f;
      }

      .cls-58 {
        fill: #aeb62a;
      }

      .cls-59 {
        fill: #bb5999;
      }

      .cls-60 {
        fill: #3c579f;
      }

      .cls-61 {
        fill: #97586f;
      }

      .cls-62 {
        fill: #4a6bad;
      }

      .cls-63 {
        fill: #fff;
      }

      .cls-64 {
        fill: #0d2759;
      }

      .cls-65 {
        fill: #ab8aba;
      }

      .cls-66 {
        fill: #c0c93d;
      }

      .cls-67 {
        fill: #9a518e;
      }

      .cls-68 {
        fill: #4a6cae;
      }

      .cls-69 {
        fill: #9aa128;
      }

      .cls-70 {
        fill: #b7bd55;
      }

      .cls-71 {
        fill: #4c2e64;
      }

      .cls-72 {
        fill: #82388a;
      }
    </style>
  </defs>
  <path class="cls-63" d="M174.78,398.41c-.38-.7.33-1.31.88-1.6v1.6h-.88Z"/>
  <path class="cls-59" d="M83.75,300.32c.56-.79,1.51-1.14,2.31-1.62.91.16,1.83.15,2.72-.12-.83,1.85-1.82,3.78-3.57,4.94-.41-.1-1.25-.29-1.67-.39.06-.93-.13-1.92.22-2.8Z"/>
  <g>
    <g>
      <path class="cls-63" d="M59.38,43.8c.56,1.14,1.21,2.24,1.54,3.47-.1,1.5-.41,2.97-.6,4.46l-.46-.2c-.01-.29-.04-.86-.05-1.15.1-2.2.1-4.42-.43-6.58Z"/>
      <path class="cls-63" d="M80.1,126.23c1.25-2.33,3.8-3.59,6.34-3.94-1.25,3.64-2.34,7.34-3.81,10.91-.96,2.29-2.36,4.7-4.84,5.56.23-4.23.2-8.73,2.31-12.54Z"/>
      <path class="cls-63" d="M26.76,163.35c1.12-1.37,2.29-2.74,3.02-4.37-1.07,6.53-1.77,13.12-2.11,19.73-.17,2.45-.41,5.49-2.9,6.72-.19-.77-.38-1.55-.56-2.32-.68.15-1.36.31-2.04.47-.56,3.27-.63,6.6-1.28,9.85-.21,1.26-.92,2.34-1.8,3.24.83-8.74-.42-17.64,1.55-26.27.4-1.61.83-3.31,1.93-4.6,1.32-.96,3.14-1.12,4.2-2.45Z"/>
      <path class="cls-63" d="M126.66,201.18c2.54,1.73,3.49,4.79,4.49,7.54,1.66,4.27,2.68,9.08,1.03,13.53-.34.35-.11,1.61-.78,1.51-2.27-5.76-3.43-11.91-4.37-18.01-.25-1.51-.36-3.04-.37-4.57Z"/>
      <path class="cls-63" d="M49.45,225.13c.24-3.42,2.85-6.08,2.98-9.53-.32,2-.1,4.04.41,6,.07.26.2.79.27,1.06.54.28,1.09.55,1.63.83.03,4.04-1,8-.83,12.04.56,4.62,2.56,8.89,3.85,13.33-1.27,0-2.55.02-3.81-.03l-.19-.49c-.9-2.56-1.86-5.1-2.41-7.76-.99-5.1-2.57-10.2-1.9-15.45Z"/>
      <path class="cls-63" d="M107.84,265.02c.63-.54,1.29-1.03,1.95-1.51-.31,1.97-.7,3.93-1.01,5.9.98-1.02,1.93-2.06,2.88-3.11,0,2.01,0,4.02.02,6.03-1.89,3.63-3.96,7.68-8.05,9.2-.28-1.1-.58-2.19-.81-3.3,1.94-4.31,2.18-9.29,5.02-13.22Z"/>
      <path class="cls-63" d="M103.99,301.49c2.95-1.12,5.33-3.26,7.79-5.16-.03,4.46,0,8.93.02,13.39-9.51.08-19.01.03-28.51.18,0,5.12.04,10.24,0,15.35v.14c-.22-4.26-.08-8.53-.1-12.79-1.53-.5-3.51-1.41-4.85-.01-1.98,2.05-1.97,5.12-2.43,7.76-1.08-.5-2.16-.99-3.24-1.49-.08,4.23-.46,8.51.26,12.71.37,2.69,1.47,5.2,2.16,7.81-1.2-2.2-2.51-4.37-3.2-6.8-1.38-4.92-3.1-9.89-2.74-15.08-.4.05-1.19.15-1.58.2,1.15-1.65,1.54-3.74,2.82-5.29,3.19-1.61,6.69-2.59,9.77-4.44,1.08-.7,1.7-1.86,2.51-2.82h.41s-.06.61-.06.61c-.44,1.37.14,2.65.98,3.73.19-.36.56-1.09.75-1.45.86-.28,1.7-1.1,2.64-.88.52.8.86,1.71,1.25,2.58,2.67.02,5.34.02,8.01-.14-1.87-1.9-4.39-2.76-6.99-3.03.06-.61.12-1.22.18-1.82,2.38-1.08,4.47-2.77,7-3.53,2.4-.73,4.81,1.24,7.19.26Z"/>
      <path class="cls-36" d="M75.86,1.01c2.06-.4,4.14-.71,6.22-1.01.52,2.77,1.24,5.5,1.78,8.27-.28.02-.82.06-1.1.08-.36-1.39-.73-2.77-1.08-4.16-1.43.84-2.93,1.57-4.48,2.15-.21.09-.63.26-.84.36-.27,2.38-.09,4.79.04,7.18-.44,1.95-.73,3.95-.63,5.96-.04,8.89-.77,17.75-1.22,26.62-.77-.18-1.53-.36-2.3-.54-2.71,4.67-.13,10.19-1.19,15.22-.14-1.35-.26-2.71-.41-4.05-.18-1.57-.65-3.09-1.28-4.53-.69,1.77-1.44,3.57-1.62,5.49-.08,1.88.36,3.81-.27,5.64-.75,2.11-1.4,4.32-2.59,6.24-.55-.87-.24-1.89-.13-2.83.87-4.91,1.39-9.89,1.61-14.87.09-2.48,1.16-4.75,1.73-7.13.08-3.33-.13-6.66-.09-9.99.04-1.69-.18-3.63,1.02-5.01,1.73-2.09,3.35-4.46,3.77-7.2,1.12-7.28,1.12-14.74,3.05-21.88Z"/>
      <path class="cls-33" d="M77.21,6.34c1.56-.58,3.05-1.3,4.48-2.15.35,1.39.71,2.77,1.08,4.16.28-.02.82-.06,1.1-.08h.1c1.61,7.53,1.59,15.28.93,22.92,1.39-3.67,2.62-7.39,4-11.05.52,3.12.6,6.3,1.4,9.37,1.61,4.69.08,9.64.19,14.45-.23,4.8.9,9.51.96,14.29-.38-.69-.77-1.38-1.16-2.06-.95.55-1.9,1.09-2.86,1.63-.56-2.32-.53-4.74.14-7.03,1.35-4.86,2.6-9.86,2.24-14.94-2.32,2.64-2.44,6.35-4.02,9.39.06-3.57.76-7.09.71-10.67-1.16,1.21-2.08,2.62-2.95,4.06.05-4.25.39-8.49.29-12.74-.35.17-1.04.51-1.39.68-3.25-5.55-2.11-12.28-4.24-18.18-1,2.15-.76,4.57-1.24,6.83-.29,1.56-.79,3.07-1.19,4.6-.09-2.01.19-4,.63-5.96.51-2.48.49-5.03.79-7.54Z"/>
      <path class="cls-52" d="M76.37,6.7c.21-.09.63-.27.84-.36-.3,2.51-.28,5.06-.79,7.54-.13-2.39-.31-4.8-.04-7.18Z"/>
      <path class="cls-58" d="M76.97,15.23c.48-2.27.24-4.69,1.24-6.83,2.13,5.9.99,12.63,4.24,18.18.35-.17,1.04-.51,1.39-.68.1,4.25-.24,8.49-.29,12.74.87-1.44,1.79-2.84,2.95-4.06.04,3.57-.65,7.1-.71,10.67,1.58-3.03,1.7-6.75,4.02-9.39.36,5.08-.89,10.09-2.24,14.94-.67,2.29-.71,4.71-.14,7.03.96-.54,1.91-1.09,2.86-1.63.4.68.78,1.37,1.16,2.06.57,4.14-.18,8.3.44,12.43,1.44-.04,1.51,1.51,1.57,2.57.35,3.94-2,7.36-3.81,10.65-3.97,6.69-6.94,14.23-7.08,22.09-1.88.5-3.24,1.94-4.82,2.98-1.78,1.19-3.97,1.4-5.86,2.35-1.39.71-2.76,1.44-4.25,1.91.08-.29.25-.87.34-1.16.34-.79.96-1.52.99-2.41-.18-1.08-.62-2.1-.94-3.14.39-.67.77-1.34,1.16-2.01.2.73.4,1.48.6,2.22.85.06,1.7.11,2.55.17.7.75,1.13,2.05,2.3,2.13.98.03,2.32-.77,1.94-1.9-.81-2.35-2.4-4.33-3.83-6.33.86-1.03,1.9-1.97,2.45-3.22-.54-3.39-2.76-6.42-2.4-9.98.38-3.35.62-6.75,1.51-10,.36,5.75.92,11.58,2.7,17.08.22.04.66.12.88.15,1.13-2.04,1.66-4.37,3.11-6.24.2,2.83.46,5.74,1.94,8.23,1.58-3.35,1.77-7.13,2.11-10.76.52-5.17-.34-10.41.59-15.55.33-2.05,1.08-4.02,1.24-6.11.47-5.15-1.18-10.15-2.7-14.99-.78,2.34-1.46,4.76-1.41,7.24.04,2.13,1.23,4.32.04,6.33-1.76-2.02-2.19-4.76-2.15-7.35-.1-5.42,1.99-10.62,1.69-16.05-.01-2.05-.42-4.07-1.07-6.02-2.02,2.06-3.53,4.56-5.48,6.67-.38,4.26.26,8.57-.41,12.82-.97-.59-1.94-1.19-2.9-1.79-.37,2.88-.07,5.76.09,8.63-.96,7.52-5.12,14.46-4.77,22.19-.13,2.9.68,5.8.24,8.69-.65-1.14-1.37-2.32-1.26-3.69.05-3.7-.29-7.42.15-11.11.59-3.64-.03-7.41,1.16-10.95.38-2.13-.01-4.3.23-6.43.59-.72,1.53-1.02,2.31-1.5.15,1.35.27,2.7.41,4.05,1.05-5.03-1.52-10.54,1.19-15.22.77.18,1.53.36,2.3.54.45-8.87,1.18-17.73,1.22-26.62.4-1.53.9-3.04,1.19-4.6Z"/>
      <g>
        <path class="cls-31" d="M49.48,9.71c.4,2.36.09,4.76.03,7.13-.17-2.37-.31-4.76-.03-7.13Z"/>
        <path class="cls-31" d="M45.73,21.78c.74-2.77,1.25-5.6,2.25-8.29.3,3.85.5,7.72,1.18,11.54-2.85,1.95-.93,6.09-3.17,8.43-.24-.67-.49-1.35-.75-2.01-.3,0-.91-.01-1.2-.01-.49,2.88-1.06,5.78-.76,8.71.28,3.32-.71,6.6-.43,9.92.13,1.72,1.13,3.41.52,5.14-1.33,4.53-3.23,8.94-3.76,13.68-.49,4.57-.47,9.18-.77,13.76.06,2.44-2.72,3.27-3.9,5.05-.2,1.71-.03,3.45-.22,5.17-1.2-1.04-.86-2.8-1.17-4.21-.47-6.24-1.36-12.48-1.24-18.75.12-2,.11-4.28,1.56-5.84,1.18.08,2.36.07,3.52-.15,1.56-4.04,2.11-8.35,3.15-12.53,1.09-4.59,1.88-9.32,1.31-14.05.22-3.61-.53-7.16-.77-10.75,1.79-1.3,4.07-2.48,4.65-4.81Z"/>
        <path class="cls-31" d="M111.26,152.1c.46-.64.94-1.28,1.33-1.98,1.78.42,3.81.6,5.14,2.02,1.46,1.53,2.57,3.35,3.93,4.97.45-1.26.87-2.53,1.28-3.81,1.37,2.48,3.12,4.71,4.97,6.87,1.61,1.87,2.48,4.2,2.94,6.59-2.08-1.23-3.25-3.38-4.61-5.28-.65,1.36-1.37,2.69-2.15,3.99-1.84-3.32-4.16-7.64-8.43-7.84-.3,1.45-.53,2.93-1.03,4.33-.4,1.1-2.05,1.56-1.77,2.9.43,3.2,1.21,6.37,1.16,9.63-1.52,2.02-4.58,2.12-6.42.47-.35-.66-.34-1.44-.46-2.15.2-1.03.43-2.05.67-3.07,1.18.76,2.38,1.51,3.58,2.25.04-.53.09-1.05.14-1.57.47-1.1.43-2.36-.41-3.27-.05-.23-.14-.7-.19-.93.19-2.02.18-4.05-.07-6.07.28-1.23.88-2.36,1.15-3.58,0-1.51-.46-2.98-.73-4.46Z"/>
      </g>
      <path class="cls-9" d="M110.62,22.59c.77-1.82,1.88-3.48,3.15-5,.36,4.83-.41,9.69-1.87,14.29-.54,4.24-.91,8.5-1.28,12.76,1.15-2.05.88-4.44,1.12-6.69.42-2.93,2.37-5.26,3.65-7.84,1.33-2.52,1.99-5.36,3.65-7.71-.22,6.27-1.93,12.65-.38,18.86,2.05,4.63,1.59,9.92,3.73,14.52,1.83,4.14,3.37,8.48,3.56,13.05.2,7.17-.06,14.35.3,21.52.29,6.99-2.56,13.54-3.52,20.37-.73,3.83-.91,8.27-4,11.07.22-2.5,1.32-4.8,1.71-7.27-3.95,3.06-5.47,8.25-9.48,11.27.82-5.57,4.29-10.18,6.6-15.18,1.97-4.12,2.39-8.72,3.48-13.1.97-4.98,2.41-9.88,3.19-14.89-2.44-2.52-2.2-6.17-2.77-9.4-.7-.04-1.4-.08-2.1-.12,0-2.38.25-4.99-1.08-7.1-.83-1.17-3.01-1.45-2.76-3.23.14-4.83-.73-9.6-.66-14.43-.5-3.81-.49-7.66-.61-11.49-.21.14-.63.43-.84.57-.86,3.04-.84,6.28-1.95,9.24-1.33,2.26-2.87,4.42-3.86,6.86-2.25-2-2.07-5.17-2.04-7.91.02-1.92-.4-3.79-.85-5.64-2.79,1.76-3.62,5.32-3.56,8.41.43,4.94,1.02,9.9.59,14.87-.26,4.57-1.47,9.06-1.26,13.66-.92-1.15-1.5-2.52-1.85-3.94-1.05-4.63-.77-9.4-1.11-14.1.83-.74,1.76-1.39,2.46-2.26.72-5.5.45-11.1,1.05-16.61.63-3.71,1.74-7.42,3.78-10.61,1.86-2.32,4.53-4.04,5.79-6.83Z"/>
      <path class="cls-38" d="M49.16,25.03c.44-.36.92-.67,1.39-.99,1.94,6.21,5.43,11.83,9.49,16.87,2.69,3.19,1.43,7.57,1.61,11.35-.23-.09-.69-.27-.92-.36-.1-.04-.31-.13-.41-.17.19-1.49.49-2.96.6-4.46-.33-1.23-.98-2.34-1.54-3.47-.36-.73-.76-1.45-1.15-2.18.33-.68-.65-2.08-1.04-.91-.63,1.76-.84,3.62-1,5.47-1.51-4.68-2.58-9.48-4.12-14.16-1.46,1.29-2.85,2.67-4.11,4.16-.11.16-.34.47-.45.63-.19.72-.38,1.43-.56,2.15-.85-1.71-.93-3.63-.95-5.5,2.24-2.34.32-6.48,3.17-8.43Z"/>
      <g>
        <path class="cls-2" d="M44.04,31.44c.3,0,.9,0,1.2.01.26.66.51,1.34.75,2.01.02,1.87.1,3.79.95,5.5.18-.72.36-1.43.56-2.15.12-.16.34-.47.45-.63-.34.98-.51,2.02-.69,3.04-.23-.01-.67-.04-.89-.06.36,1.02.25,2.45,1.35,3.01,1.44.81,3.16.64,4.75.78.75,3.47.85,7.04,1.7,10.48.46-1.49.99-2.97,1.92-4.25,1.16-1.54,1.39-3.49,1.77-5.33.56,2.19.66,4.57,1.95,6.5.01.29.04.86.05,1.15l.46.2c.1.04.31.13.41.17l-.33.35c-1.33,1.17-1.25,3.08-1.51,4.69-.38,4.86.38,9.88-1.05,14.62-.73,1.85-1.69,3.67-1.77,5.71-.16,2.69-.26,5.61-2.19,7.72-1.07-3.17-.53-6.56-1.08-9.8-.17-1.35-1.31-2.11-2.34-2.8-.24-2.54.14-5.12-.46-7.62-.97,1.53-1.8,3.24-1.81,5.1.04,5.66,2.17,11.05,2.67,16.64-.75,1.1-2.24,1.53-2.84,2.7-.17,1.76-.12,3.55-.61,5.27-3.01-3.54-3.79-8.2-5.02-12.52-1.62,2.59-3.1,5.27-4.62,7.92,1.41,4.99,3.81,9.68,6.92,13.81,2.38,3.03,6.22,4.05,9.53,5.68.08-.65.15-1.31.21-1.96.14,1.54.38,3.14-.04,4.66-1.15.57-2.56-.03-3.79-.08-.34,1.65-.78,3.31-1.9,4.61-.74-1.45-1.77-2.72-2.74-4.01-.57-.97-1.12-1.96-1.82-2.84-.91-1.12-2.34-1.66-3.26-2.76-1.13-1.86-1.42-4.07-2.23-6.06-.72-1.97-2.01-3.63-3.09-5.39-.31-.89-.55-1.79-.86-2.68.19-1.72.02-3.46.22-5.17,1.19-1.77,3.96-2.61,3.9-5.05.3-4.58.29-9.19.77-13.76.53-4.74,2.43-9.15,3.76-13.68.61-1.73-.39-3.42-.52-5.14-.28-3.32.71-6.6.43-9.92-.3-2.93.27-5.84.76-8.71Z"/>
        <path class="cls-2" d="M117.03,172c-.5-2.26,1.95-3.47,3.38-4.71,3.94,3.19,5.73,8.09,6.95,12.84,1.73,6.67,4.76,12.91,8.31,18.79l.51-.02c1-1.55,1.69-3.26,2.56-4.87.43,2.61.68,5.25.56,7.89-.41,2.42-.37,4.92.2,7.32-.75,3.63.98,7.19,2.27,10.5,1.21,2.52.08,5.42,1.05,7.99-.89,1.95-1,4.11-1.15,6.21-.38,4.67-1.69,9.27-3.91,13.41-1.06,1.97-2.16,3.93-2.81,6.07-.25.18-.77.54-1.02.72-.38,1.1-.63,2.24-.89,3.37-.86-.42-1.71-.83-2.57-1.24.52-2.46,1.16-4.89,1.79-7.32.8.29,1.17-.6,1.67-1,1.17-1.41,2.69-2.77,2.91-4.7.99-6.07,2.71-12.16,2.06-18.37-.34-3.09-.2-6.24-1.03-9.27-1.47,6.19-3.88,12.13-6.93,17.7-1.84,3.42-1.74,7.4-2.21,11.15-.43,1.28-.64,2.61-.77,3.94-3.86,0-7.72.06-11.57.08.39-2.32.66-4.66.64-7.01-1.04,2.27-1.85,4.64-2.64,7-.7,0-1.39.01-2.09.04-.86-.99-1.82-1.93-2.41-3.11.12-2.02,1.22-3.84,1.9-5.71.65-1.84,2.59-2.75,3.41-4.49.83-1.68,1.38-3.57,2.72-4.95.6-.79,1.52-1.46,1.72-2.48-.83-4.43-3.69-8.25-4.25-12.75,1.72,1.51,3.08,3.41,4.97,4.73-.22-2.75-.63-5.5-1.5-8.13-.44-1.24-.61-2.54-.6-3.84,1.82,2.71,2.67,5.92,4.41,8.68-.14-1.37-.3-2.74-.66-4.06-1.3-4.85-2.5-9.84-5.14-14.17-.76-1.28-1.97-2.17-3.14-3.05-.4-1.25-.83-2.48-1.15-3.75-.19-2.41.06-4.81.34-7.2,2.62,0,4.69,1.78,7.02,2.73-.86-5.01-2.09-9.94-2.93-14.94ZM126.66,201.18c.01,1.52.12,3.05.37,4.57.94,6.1,2.1,12.25,4.37,18.01.67.1.45-1.16.78-1.51,1.65-4.45.63-9.25-1.03-13.53-.99-2.75-1.95-5.81-4.49-7.54Z"/>
        <path class="cls-2" d="M105.32,261.44c.82-.12,1.65-.22,2.47-.33.02,1.3.03,2.6.05,3.91-2.84,3.93-3.08,8.92-5.02,13.22-2.52,2.69-4.53,5.83-7.19,8.39-.09-1.02-.17-2.04-.25-3.06-1.17,1.36-2.49,2.69-3.13,4.41-.68,1.57.03,3.27-.03,4.91-1.31,1.49-2.79,2.94-3.2,4.97l-.24.72c-.89.27-1.81.28-2.72.12-.8.47-1.75.83-2.31,1.62-.34.88-.15,1.87-.22,2.8.42.1,1.26.29,1.67.39l-1.13.51c-.37.57-.74,1.15-1.09,1.75l.06-.61c.1-5.16-.05-10.32,0-15.49-3.43-.09-6.87,0-10.31-.03,2.59-1.23,5.55-1.99,7.56-4.15,1.75-1.81,3.43-3.69,4.99-5.66.31.73.66,1.45,1,2.18,1.76-.92,3.7-1.81,4.67-3.65,2.48-4.33,6.3-8.18,6.69-13.4.22-.01.67-.04.89-.06.24,0,.72-.03.97-.03.11.87.23,1.73.34,2.61,1.35-.91,2.67-1.87,4.08-2.67.28-.02.86-.07,1.14-.08.09-1.1.13-2.2.24-3.29ZM99.65,272.81c-2.06,1.67-1.69,4.63-2.28,6.97,1.53-1.99,3.17-3.95,4.34-6.19.47-1.43-1.29-.89-2.06-.78ZM84.11,291.92c-.89,1.05-.53,2.52-.61,3.78,1.62-1.44,4.2-2.14,4.79-4.44.57-1.43.65-2.98.59-4.49-1.71,1.6-3.34,3.3-4.78,5.16Z"/>
      </g>
      <g>
        <path class="cls-26" d="M47.95,35.18c1.26-1.49,2.65-2.87,4.11-4.16,1.54,4.67,2.61,9.48,4.12,14.16.17-1.84.38-3.71,1-5.47l1.04.91c.39.72.78,1.44,1.15,2.18.53,2.15.54,4.38.43,6.58-1.29-1.93-1.39-4.31-1.95-6.5-.38,1.83-.61,3.79-1.77,5.33-.92,1.28-1.45,2.76-1.92,4.25-.85-3.44-.95-7.02-1.7-10.48-1.59-.14-3.31.03-4.75-.78-1.1-.56-.99-1.99-1.35-3.01.22.02.67.04.89.06.18-1.03.35-2.06.69-3.04Z"/>
        <path class="cls-26" d="M58.9,55.94c.26-1.61.18-3.52,1.51-4.69-.07,2.47-.1,4.95-.33,7.42-.43,4.55-.31,9.15-.89,13.69-1.48,3.08-1.99,6.49-2.42,9.85-.29,2.43-1.8,4.6-1.63,7.11.08,2.64.38,5.3-.17,7.92.08-1.78-.06-3.57-.48-5.3-.1,2.63-.3,5.27-.66,7.88-.3,2.22.31,4.42.61,6.6-.06.65-.13,1.31-.21,1.96-3.31-1.63-7.15-2.65-9.53-5.68-3.11-4.14-5.51-8.83-6.92-13.81,1.52-2.66,2.99-5.33,4.62-7.92,1.23,4.32,2.02,8.98,5.02,12.52.49-1.72.45-3.51.61-5.27.61-1.17,2.1-1.6,2.84-2.7-.5-5.59-2.63-10.98-2.67-16.64,0-1.85.84-3.56,1.81-5.1.6,2.5.22,5.08.46,7.62,1.03.68,2.17,1.45,2.34,2.8.55,3.24,0,6.62,1.08,9.8,1.93-2.11,2.03-5.03,2.19-7.72.08-2.04,1.04-3.86,1.77-5.71,1.44-4.75.68-9.76,1.05-14.62Z"/>
        <path class="cls-26" d="M72.68,304.11c3.32,0,6.64-.13,9.96.06-.81.96-1.42,2.13-2.51,2.82-3.08,1.84-6.59,2.83-9.77,4.44-1.28,1.56-1.67,3.64-2.82,5.29-1.19,1.39-1.97,3.05-2.85,4.63-1.16.58-2.53.38-3.79.49-.34,1.73-.68,3.48-1.56,5.03-.7-5.99-.88-12.01-1.38-18.01-.19,0-.59,0-.78,0h-.19c.29-.08.88-.25,1.18-.33.25-.08.75-.23,1-.31-.29,2.52-.83,5.03-.53,7.58,2.19-1.68,4.23-3.54,6.02-5.66,1.01-1.34,2.99-.31,4.2-1.31,1.61-1.27,2.64-3.08,3.81-4.73Z"/>
      </g>
      <g>
        <path class="cls-66" d="M75.83,40.22c1.95-2.11,3.46-4.61,5.48-6.67.65,1.94,1.05,3.96,1.07,6.02.3,5.43-1.79,10.63-1.69,16.05-.04,2.59.39,5.33,2.15,7.35,1.19-2.02,0-4.21-.04-6.33-.06-2.48.62-4.91,1.41-7.24,1.52,4.84,3.17,9.85,2.7,14.99-.17,2.08-.91,4.05-1.24,6.11-.93,5.14-.07,10.38-.59,15.55-.34,3.63-.53,7.41-2.11,10.76-1.48-2.5-1.74-5.4-1.94-8.23-1.45,1.87-1.99,4.21-3.11,6.24-.22-.04-.66-.12-.88-.15-1.78-5.5-2.34-11.33-2.7-17.08-.89,3.25-1.13,6.66-1.51,10-.36,3.56,1.85,6.59,2.4,9.98-.55,1.25-1.59,2.19-2.45,3.22-1.05-.88-2.29-1.55-3.21-2.56-.49-2.48-.31-5.13-1.47-7.46.44-2.89-.37-5.79-.24-8.69-.35-7.73,3.81-14.67,4.77-22.19-.17-2.88-.46-5.76-.09-8.63.97.6,1.93,1.2,2.9,1.79.67-4.25.03-8.56.41-12.82Z"/>
        <path class="cls-66" d="M99.67,165.84c.18-.07.55-.22.73-.29-.15,4.92.25,9.92,1.53,14.69.97-.94,1.95-1.89,2.95-2.8-.03,1.71-.13,3.42-.33,5.12-.54,4.42-.36,8.88-.14,13.32.81-.89,1.63-1.78,2.47-2.64.52,2.52-.26,5.05-.47,7.56-.57,5.49-1.73,10.97-1.38,16.52.68.3,1.36.59,2.04.89-.72,6.02-1.77,11.99-2.5,18.01-.31,3.21-2.09,5.98-3.03,9-.28.99-.5,2-.72,3.02-.17-.97-.35-1.93-.51-2.89-.52-4.1-1.18-8.21-1.14-12.36.93-5.37,1.45-10.82,1.45-16.27-.07-4.89,2.1-9.46,2.17-14.34.36-5.58-.68-11.09-1.33-16.6-.83,3.2-2.8,5.89-4,8.93-.35-2.57-1.02-5.09-2-7.49-1.22-2.76-.57-5.86-1.5-8.69-1.34,1.57-2.11,3.61-3.69,4.96-.86-.78-1.6-1.67-2.36-2.55-.65,2.9-.78,5.89-1.42,8.8-.54-3.52-.83-7.07-1.65-10.53-.68.25-1.61.26-1.9,1.07-2.3,4.3-4.44,8.79-5.27,13.64-.55,3.41-.73,6.87-1.08,10.31-1.41-4.4-1.4-9.1-2.23-13.63-3,3.8-5.05,8.36-5.57,13.21-1.89.71-1.61,2.67-1.17,4.25-.04.1-.13.3-.17.4-.59.68-1.2,1.33-1.81,1.99-.27-.49-.53-.97-.78-1.46-.09-.66-.19-1.31-.28-1.97l-.42-.04c.18-1.28.29-2.56.41-3.84-2.51-2.43-4.66-6.52-2.29-9.75.77,0,1.53,0,2.3,0,1.18-1.67,1.99-3.65,3.62-4.95.52,1.55,1.07,3.08,1.69,4.59.35-2.19.68-4.38.99-6.58,1.97-1.44,4.26-2.21,6.61-2.76,2.16-3.79,2.35-8.41,4.42-12.28.41,1.34.81,2.68,1.25,4.01.84-1.83,1.32-3.79,1.69-5.76,1.56.98,1.38,2.9,1.53,4.5.55-.08,1.1-.15,1.65-.23.57,1.09,1.15,2.19,1.74,3.27.86-2.43,1.32-4.97,2.18-7.39.19,0,.55.03.73.04,2.57,3.04,2.62,7.2,4.36,10.63.97-3.48.84-7.14,1.36-10.71.52.14,1.04.29,1.57.44-.07-1.47-.17-2.94-.31-4.39Z"/>
        <path class="cls-66" d="M60.26,219.09c.84.04,1.69.09,2.54.14,1.97,9.8,3.41,19.71,5.11,29.56-1.74.01-3.49,0-5.23.01.69-.79,1.4-1.56,2.14-2.31-.2-2.02-.56-4.04-1.3-5.93-.91-2.58-2.61-4.94-2.66-7.76-.17-4.57-.7-9.13-.6-13.71Z"/>
        <path class="cls-66" d="M87.83,265.11c3.27-.07,6.55.04,9.83-.15-.39,5.23-4.21,9.08-6.69,13.4-.97,1.85-2.91,2.73-4.67,3.65-.34-.73-.68-1.45-1-2.18-.43-3.12.09-6.28-.13-9.41-.78-.05-1.56-.09-2.35-.14.49-1.44,1.29-2.74,2.62-3.54.3,1.63.63,3.26,1.07,4.87.51-2.15.9-4.33,1.31-6.5Z"/>
        <path class="cls-66" d="M78.34,312.6c1.34-1.4,3.32-.49,4.85.01.02,4.26-.12,8.53.09,12.79,1.46-.03,2.91-.04,4.37-.06-.06.5-.16,1.51-.21,2.02-.67,3.44-2.04,6.71-3.97,9.63-1.81,1.97-3.89,4.09-6.66,4.49-.96.18-1.31-.98-1.6-1.66l-.13-.44c-.69-2.61-1.79-5.12-2.16-7.81-.72-4.2-.34-8.48-.26-12.71,1.08.5,2.16.99,3.24,1.49.47-2.64.46-5.71,2.43-7.76Z"/>
      </g>
      <g>
        <path class="cls-62" d="M113.43,37.44c.21-.14.63-.43.84-.57.12,3.84.12,7.68.61,11.49-.07,4.83.8,9.6.66,14.43-.25,1.78,1.93,2.06,2.76,3.23,1.34,2.11,1.08,4.71,1.08,7.1.7.04,1.4.08,2.1.12.57,3.22.33,6.88,2.77,9.4-.78,5.01-2.22,9.91-3.19,14.89-1.09,4.38-1.51,8.98-3.48,13.1-2.31,5-5.77,9.61-6.6,15.18,4.01-3.02,5.53-8.21,9.48-11.27-.39,2.47-1.5,4.76-1.71,7.27l-.02.09c-1.63,1.53-2.29,3.76-3.15,5.77-3,1.61-4.91,4.61-7.83,6.33-1.68,1.03-3.46,1.98-4.82,3.44-2.8,2.9-4.98,6.46-8.35,8.78-2.29,1.77-5.1,2.61-7.55,4.1-1.84,1.1-2.95,3-4.09,4.75.14-1.53.09-3.21,1.1-4.48,2.08-2.61,5.24-3.99,7.6-6.28,1.6-1.47-1.89-3.21-.37-4.7,1.74-1.87,3.57-3.7,5.68-5.16.99,1.08,2.11,2.02,3.32,2.85,1.3-2.97,4.6-4.07,6.37-6.66,2.91-3.84,4.28-8.58,5.11-13.27.43-1.99.52-4.03.38-6.05-4.37,5.68-8.44,11.6-11.91,17.89-.55,1.29-1.72,1.98-3.07,2.16,1.37-3.83,3.76-7.18,5.49-10.85,1.51-2.75,2.95-5.53,4.46-8.28,1.42-2.69,4.12-4.58,4.97-7.59,1.23-3.7.67-7.83,2.47-11.37,1.25-2.38,1.59-5.1,1.58-7.76-2.22,1.35-4.05,3.3-5.53,5.41-.97,2.2-1.37,4.9-3.53,6.35-.72-.06-1.42-.22-2.13-.34-.91.87-1.81,1.74-2.74,2.59.41-5.36,3.74-9.85,6.7-14.12,1.41-2.25,1.65-4.98,1.67-7.56-3.39,2.05-4.95,5.99-8.12,8.29-1.69,1.23-3.16,2.72-4.82,3.99-.05-2.24,1.32-4.04,2.14-6.01.65-2.33.82-4.77.75-7.17-.21-4.6.99-9.09,1.26-13.66.43-4.96-.16-9.93-.59-14.87-.07-3.09.77-6.65,3.56-8.41.45,1.84.87,3.72.85,5.64-.03,2.74-.22,5.91,2.04,7.91,1-2.45,2.53-4.6,3.86-6.86,1.1-2.96,1.09-6.2,1.95-9.24Z"/>
        <path class="cls-62" d="M15.45,240.57c.41-4.54-.11-9.1.35-13.63.24,1.95.42,4.01,1.62,5.66,2.88,4.33,5.17,9.03,6.99,13.9,1.03,1.9-1.08,3.31-1.64,4.96.73,2.1,1.98,3.96,2.98,5.93,1.31,2.5,2.45,5.11,4.18,7.35,1.6,2.03,2.57,4.44,4.04,6.54.69,1.03,2.14.66,3.18.94,0,4.41.04,8.82.01,13.23-2.62-2.13-5.03-4.61-6.4-7.74-1.07-2.56-2.5-4.92-4-7.24-1.18-2.9-1.5-6.05-2.45-9.02-1.4-4.43-3.98-8.33-6.43-12.21-1.67-2.56-2.49-5.64-2.43-8.68Z"/>
      </g>
      <path class="cls-50" d="M57.19,40.72c.39-1.18,1.36.23,1.04.91l-1.04-.91Z"/>
      <path class="cls-8" d="M69.38,52.56c.63,1.44,1.1,2.95,1.28,4.53-.77.48-1.72.78-2.31,1.5-.24,2.13.15,4.3-.23,6.43-.16-.34-.48-1-.64-1.33.63-1.83.19-3.77.27-5.64.19-1.92.93-3.72,1.62-5.49Z"/>
      <g>
        <path class="cls-69" d="M67.49,63.69c.16.33.48.99.64,1.33-1.2,3.54-.57,7.31-1.16,10.95-.44,3.69-.1,7.41-.15,11.11-.12,1.37.61,2.55,1.26,3.69,1.15,2.33.98,4.98,1.47,7.46.93,1.01,2.16,1.68,3.21,2.56,1.44,1.99,3.03,3.97,3.83,6.33.38,1.13-.96,1.94-1.94,1.9-1.18-.07-1.6-1.38-2.3-2.13-.85-.06-1.7-.12-2.55-.17-.2-.74-.4-1.49-.6-2.22-.28-.97-.63-1.9-1.05-2.82-.2,1.6-.31,3.22-.12,4.83.32,1.04.77,2.06.94,3.14-.04.89-.65,1.62-.99,2.41-.54.1-1.07.2-1.61.29-1.06-2.54-1.53-5.28-1.82-8,.25-2.35.11-4.71-.32-7.03-.18-1.82-.48-3.62-.76-5.42.27-3.83.33-7.66.46-11.48.03-1.18.08-2.4-.34-3.52-.06-.13-.18-.4-.25-.53.45-1.71.48-3.78,1.31-5.33.08-.12.25-.35.33-.47-.02-.16-.07-.48-.1-.64,1.19-1.92,1.84-4.12,2.59-6.24Z"/>
        <path class="cls-69" d="M90.76,160.9c1.08.36,2.2.63,3.2,1.2,1.55,1.22,2.39,3.13,4.01,4.27.58-.13,1.14-.3,1.69-.52.15,1.46.25,2.93.31,4.39-.52-.15-1.04-.29-1.57-.44-.52,3.57-.4,7.23-1.36,10.71-1.74-3.43-1.78-7.59-4.36-10.63-.18-.01-.55-.03-.73-.04-.85,2.42-1.31,4.96-2.18,7.39-.6-1.09-1.17-2.18-1.74-3.27-.55.07-1.1.15-1.65.23-.15-1.6.02-3.52-1.53-4.5-.37,1.97-.86,3.93-1.69,5.76-.44-1.33-.83-2.67-1.25-4.01-2.07,3.86-2.25,8.49-4.42,12.28-2.35.55-4.64,1.32-6.61,2.76-.31,2.19-.64,4.38-.99,6.58-.62-1.51-1.17-3.05-1.69-4.59-1.63,1.3-2.44,3.28-3.62,4.95-.77,0-1.53,0-2.3,0,.75-2.64,1.39-5.35,2.79-7.74,1.54-2.58,3.33-5.01,5.33-7.26.61,1.24,1.09,3.48,2.96,2.84,1.44-1.51,3.2-2.61,4.82-3.89.88-2.08.68-4.41,1.34-6.54.81-1.67,2.77-2.01,4.28-2.75.81-1.01,1.31-2.21,1.93-3.35,1.22.7,2.34,1.71,3.77,1.93.68-1.85.89-3.83,1.26-5.76Z"/>
      </g>
      <g>
        <path class="cls-45" d="M56.77,83.2c.43-3.36.94-6.77,2.42-9.85.07,5.69-2.37,11.32-1.09,17,.5,2.48,2.1,4.6,4.12,6.07.55-4.65-.17-9.29-.71-13.9-.44-2.31,1.41-4.18,1.73-6.39l.11.24c.07.13.19.4.25.53.43,1.13.37,2.34.34,3.52-.14,3.83-.19,7.66-.46,11.48-.31,3.04-.3,6.09-.45,9.14-.94-.99-1.87-2-2.81-2.99.54,4.84,1.83,9.55,2.71,14.33-1.94-1.51-3.72-3.81-6.46-3.45-.61-3.54-1.78-7.07-1.5-10.7.55-2.62.24-5.28.17-7.92-.17-2.51,1.35-4.68,1.63-7.11Z"/>
        <path class="cls-45" d="M45.97,112.59c.97,1.3,2,2.56,2.74,4.01.24,3.8,1.11,7.65,3.12,10.92.45.87,1.33,1.31,2.17,1.71.08.42.24,1.25.33,1.67-.15.16-.46.49-.62.65-1.9-.1-3.84-.48-5.71.09-.17.04-.51.13-.67.17-.08.27-.24.81-.31,1.07-.07.2-.19.62-.26.83-2.71,2.03-4.89,4.88-8.2,5.99.01-.98.02-1.95.02-2.93.1-.37.33-1.1.43-1.47,2.33-1.21,5.11-1.57,7.11-3.39,1.36-1.35,2.24-3.2,2.5-5.09-.94-2.2-2.77-3.9-4.76-5.17-1.15-1.35-1.36-3.29-2-4.91,1.3,1.69,3.32,2.48,5.31,3.04-.47-2.39-.99-4.77-1.18-7.2Z"/>
        <path class="cls-45" d="M138.61,175.75c2.47,1.56,3.84,4.27,4.12,7.13-.41,3.44-.28,6.91-.06,10.35-.23,2.4-.35,4.95.89,7.13,2.33,4.46,3.91,9.34,4.22,14.39-.57,3.66-.45,7.4-.06,11.08-.28,6.74-3.18,13.5-1.04,20.21h0c-.86.45-.6,1.45-.67,2.25-.07,3.7-.56,7.45-1.85,10.94-1.28,3.51-4.34,5.98-5.57,9.52-2.45,5.64-3.83,12.53-9.37,16.06-.06-3.6-.1-7.2-.02-10.8,1.15-1.63,1.82-3.52,2.18-5.47-.75.41-1.49.83-2.22,1.26-.01-1.23,0-2.46.02-3.69,1.57-1.27,3.35-2.54,4.05-4.53.96-2.62,1.41-5.39,1.72-8.15.65-2.15,1.75-4.11,2.81-6.07,2.21-4.14,3.53-8.74,3.91-13.41.15-2.1.26-4.26,1.15-6.21,1.39-2.78,1.55-5.93,1.78-8.98.24-2.59.16-5.2.04-7.8-.02-1.23-.19-2.43-.4-3.64-.87,1.44-1.84,2.87-3.3,3.77-.5-.61-.98-1.23-1.45-1.84-.57-2.4-.61-4.89-.2-7.32.71-2.83,1.68-5.61,1.95-8.53.21-2.04.5-4.17-.18-6.16-.65-1.78-1.93-3.3-2.26-5.2-.34-2.08-.13-4.2-.19-6.29Z"/>
        <path class="cls-45" d="M98.93,296.27c3.35-2.34,6.55-4.93,10.13-6.9.2.06.61.18.8.24.45,1.62.83,3.26,1.29,4.88.39-.26,1.17-.78,1.56-1.04,0,.83-.01,1.67-.02,2.5-2.6,2.03-5.11,4.33-8.22,5.52-2.51,1.04-5.06-1.07-7.59-.28-2.67.81-4.87,2.63-7.39,3.78-.06.64-.13,1.3-.19,1.95,2.74.28,5.41,1.21,7.38,3.24-2.82.17-5.64.18-8.46.15-.41-.94-.76-1.91-1.32-2.77-.99-.23-1.88.65-2.79.95-.2.39-.59,1.16-.79,1.56-.89-1.15-1.5-2.52-1.03-3.99.37-.64.76-1.26,1.15-1.87l1.19-.54c1.85-1.24,2.89-3.3,3.77-5.29l.26-.77c.84-.12,2.13-.35,2.97-.47-.05.64-.11,1.88-.16,2.52,2.76-.89,5.05-1.69,7.46-3.37Z"/>
      </g>
      <g>
        <path class="cls-21" d="M102.43,86.12c3.17-2.3,4.73-6.24,8.12-8.29-.02,2.58-.26,5.32-1.67,7.56-2.96,4.27-6.29,8.76-6.7,14.12.93-.84,1.84-1.72,2.74-2.59.7.12,1.41.29,2.13.34,2.16-1.45,2.56-4.15,3.53-6.35,1.49-2.11,3.31-4.06,5.53-5.41.01,2.66-.33,5.38-1.58,7.76-1.81,3.54-1.24,7.67-2.47,11.37-.84,3.01-3.54,4.9-4.97,7.59-1.5,2.75-2.95,5.53-4.46,8.28-1.73,3.67-4.12,7.02-5.49,10.85,1.35-.18,2.52-.87,3.07-2.16,3.47-6.28,7.54-12.21,11.91-17.89.14,2.02.04,4.06-.38,6.05-.83,4.68-2.2,9.42-5.11,13.27-1.76,2.59-5.06,3.69-6.37,6.66-1.2-.83-2.32-1.77-3.32-2.85-2.11,1.46-3.94,3.28-5.68,5.16-1.52,1.49,1.97,3.24.37,4.7-2.36,2.3-5.52,3.68-7.6,6.28-1,1.27-.96,2.95-1.1,4.48-.89,2.22-1.9,4.46-3.68,6.13-.06-.56-.19-1.69-.26-2.26-2.46,1.5-3.53,4.2-5.01,6.51-1.35.06-2.66-.36-3.95-.69-2.21,3.82-3.68,8.02-5.75,11.92-.54,1.13-1.72,1.66-2.68,2.36-1.86,1.03-1.84,3.95-4.2,4.31,1.45-5.4,2.91-10.86,5.43-15.88,1.35-2.94,1.61-6.23,1.74-9.42-1.39,1.21-2.55,2.64-3.65,4.11.04-3.23.62-6.43,1.54-9.52.44-1.94,2.49-2.65,3.83-3.85,3.4-3,6.03-7.54,5.13-12.21-2.21,1.74-4.02,3.91-6.08,5.8-1.1,1.11-2.83.69-4.18,1.23-.91,2.46-1.1,5.22-2.57,7.45-.61.97-1.81,1.25-2.76,1.74.97-5.48,2.92-10.73,4.55-16.04.91-3.29,3.42-5.71,5.46-8.32,2.71-3.37,5.61-6.56,8.45-9.81,2.19-2.55,5.26-4,8.12-5.65,3.75-2.29,7.15-5.6,8.42-9.92-2.62.75-4.94,2.31-7.65,2.79-.03-.22-.09-.66-.12-.88,3.92-.44,6.14-3.89,8.31-6.76,2.21-2.6,3.97-5.56,6.25-8.11,1.66-1.27,3.13-2.75,4.82-3.99ZM80.1,126.23c-2.11,3.8-2.08,8.31-2.31,12.54,2.48-.87,3.88-3.28,4.84-5.56,1.47-3.57,2.56-7.27,3.81-10.91-2.54.35-5.09,1.61-6.34,3.94ZM73.77,146.83c-.83,3.75-2.05,7.49-4.32,10.64-1.4,1.92-2.67,3.96-3.12,6.32,3.44.51,6.37-1.79,8.54-4.19,2.64-2.98,5.41-5.86,7.75-9.09-1.36-2.35-4.1-1.2-6.17-.75.22-2.35,1.3-4.53,1.4-6.9-2.1.03-3.73,1.98-4.08,3.96Z"/>
        <path class="cls-21" d="M47.01,132.9l2.75.65c-1.56,4.69-3.41,9.3-4.38,14.17.53-.11,1.05-.22,1.58-.32-.02,1.06-.03,2.12-.05,3.19.73.54,1.46,1.08,2.19,1.63,2-1.97,3.5-4.39,5.62-6.24-.26,1.92-.38,4-1.57,5.62-1,1.39-2.11,2.7-3.26,3.97-1.57,1.76-3.79,2.78-5.26,4.65-1.25,1.56-2.4,3.2-3.62,4.79-1.87,2.4-2.85,5.35-3.49,8.29,4.3-1.2,7.62-4.23,11.08-6.87-1.89,6.5-3.03,13.19-4.65,19.77-.69,3.75-2.05,7.41-2.04,11.27.7.24,1.39.49,2.08.74-.25,3.02-.87,6.01-.91,9.05.83-.64,1.65-1.36,1.95-2.39,1.25-3.37,2.06-6.92,3.69-10.15,1.55-3.11,3.36-6.1,5.37-8.94,0,1.49.12,3.06-.52,4.46-.81,2.08-2.53,3.8-2.72,6.09-.34,2.59-.01,5.21.37,7.77.49,3.44-.3,6.94-1.73,10.08-.25-1.19-.61-2.34-1.02-3.48-2.11,2.9-2.57,6.49-3.65,9.8-.98,2.94-.8,6.21-.06,9.18,1.02,3.32.92,6.82,1.52,10.22.5,2.99.36,6.02.25,9.03-3.12,0-6.25.04-9.37.04-.03,4.4-.02,8.81-.01,13.21-.72-.61-1.44-1.22-2.16-1.83.63,3.21,1.21,6.44,2.13,9.58.02.76.04,1.53.05,2.3-1.04-.28-2.49.09-3.18-.94-1.46-2.1-2.44-4.52-4.04-6.54-1.74-2.24-2.88-4.85-4.18-7.35-.99-1.98-2.24-3.84-2.98-5.93.56-1.66,2.67-3.06,1.64-4.96-1.82-4.87-4.11-9.57-6.99-13.9-1.2-1.65-1.38-3.71-1.62-5.66-.46,4.53.06,9.09-.35,13.63-.33-.14-.97-.41-1.29-.54.12-.15.34-.45.45-.61l.71-.62c.08-5.97.23-11.96-.08-17.93.97-5.39.76-10.91.84-16.37-.08-2.93.72-5.88,3-7.84.88-.9,1.59-1.98,1.8-3.24.64-3.25.72-6.58,1.28-9.85.68-.16,1.36-.31,2.04-.47.19.77.38,1.55.56,2.32,2.5-1.24,2.73-4.27,2.9-6.72.34-6.61,1.04-13.2,2.11-19.73.76-3.04,1.95-5.94,3.17-8.82,1.52-3.65,4.37-6.65,5.33-10.54.11-.95.1-1.9.29-2.83,0,.97,0,1.94-.02,2.93,3.31-1.11,5.49-3.96,8.2-5.99.07-.21.19-.62.26-.83ZM33.6,204.46c-1.19.18-1.93-1.34-3.11-1.47-.84-.34-2.13,0-2.06,1.09-.29,4.6.75,9.17.59,13.78.19,4.65-.25,9.32-1.36,13.85-.5,3.11-2.19,6.2-1.21,9.39.86,2.79,1.35,5.68,2.19,8.48.41,1.37,2.21,1.01,3.18.51-.43-6.66-.96-13.42.2-20.06,1.61-9.74,3.21-19.5,4.48-29.29-1.7.57-1.74,2.61-2.9,3.72Z"/>
      </g>
      <g>
        <path class="cls-72" d="M63.03,101.04c.14-3.05.13-6.1.45-9.14.28,1.8.58,3.61.76,5.42-.2,2.35-.13,4.71.32,7.03.28,2.72.76,5.46,1.82,8-.71,1.27-1.68,2.88-3.35,2.79-1.36-.41-2.59-1.13-3.86-1.76.16,2.97.94,6.05.02,8.97-.34,1.34-1.56,2.13-2.45,3.08-1.17,1.06-2.02,2.41-2.74,3.8-.84-.4-1.72-.84-2.17-1.71-2.01-3.27-2.88-7.12-3.12-10.92,1.12-1.3,1.56-2.96,1.9-4.61,1.23.04,2.64.65,3.79.08.41-1.52.18-3.12.04-4.66-.3-2.19-.91-4.38-.61-6.6.35-2.62.56-5.25.66-7.88.43,1.73.56,3.52.48,5.3-.28,3.63.89,7.15,1.5,10.7,2.75-.36,4.53,1.94,6.46,3.45-.87-4.78-2.16-9.49-2.71-14.33.94.99,1.87,2,2.81,2.99Z"/>
        <path class="cls-72" d="M115.66,157.62c4.27.21,6.59,4.52,8.43,7.84.78-1.29,1.5-2.62,2.15-3.99,1.36,1.9,2.53,4.06,4.61,5.28.65,1.52,1.55,2.92,2.42,4.32.95-1.51,1.88-3.03,2.81-4.54.41.25.82.52,1.21.81.84,2.72.64,5.64,1.31,8.4.06,2.1-.15,4.21.19,6.29.33,1.89,1.61,3.42,2.26,5.2-.23,2.05-.35,4.14.18,6.16-.27,2.92-1.24,5.7-1.95,8.53.12-2.64-.13-5.29-.56-7.89-.87,1.61-1.56,3.33-2.56,4.87l-.51.02c-3.55-5.88-6.58-12.12-8.31-18.79-1.22-4.75-3-9.66-6.95-12.84-1.42,1.24-3.88,2.46-3.38,4.71.84,5.01,2.07,9.94,2.93,14.94-2.32-.95-4.4-2.72-7.02-2.73-.29,2.39-.54,4.8-.34,7.2-1.07-4-1.99-8.04-2.87-12.09.1-.26.3-.78.4-1.04,1.36-.16,2.73-.22,4.09-.37l.18-.42c.9-2.59,1.58-5.63-.02-8.1-.08,1.69-.1,3.4-.35,5.08.06-3.26-.73-6.43-1.16-9.63-.29-1.35,1.37-1.81,1.77-2.9.5-1.4.73-2.88,1.03-4.33Z"/>
        <path class="cls-72" d="M140.94,211.08c1.46-.9,2.43-2.32,3.3-3.77.2,1.2.38,2.41.4,3.64-.67,2.56-.65,5.23-.04,7.8-.23,3.04-.39,6.19-1.78,8.98-.98-2.58.16-5.47-1.05-7.99-1.3-3.31-3.03-6.87-2.27-10.5.47.62.96,1.24,1.45,1.84Z"/>
      </g>
      <g>
        <path class="cls-72" d="M35.57,95.54c1.08,1.76,2.37,3.42,3.09,5.39.81,1.99,1.1,4.2,2.23,6.06.92,1.1,2.35,1.65,3.26,2.76.7.88,1.24,1.87,1.82,2.84.18,2.43.71,4.81,1.18,7.2-1.99-.56-4.01-1.35-5.31-3.04-4.83-5.86-6.4-13.79-6.26-21.21Z"/>
        <path class="cls-72" d="M132.87,235.23c1.01-3.11.21-7.11,3.08-9.37.78,3.33.56,6.81.34,10.19-.92,4.43-3.09,8.48-4.04,12.91-.63,2.43-1.26,4.86-1.79,7.32.86.41,1.72.82,2.57,1.24.26-1.14.51-2.27.89-3.37.25-.18.77-.54,1.02-.72-.31,2.76-.77,5.53-1.72,8.15-.7,1.99-2.47,3.26-4.05,4.53,0-5.9-.03-11.8-.04-17.69-.29,0-.88,0-1.17,0,.13-1.34.34-2.67.77-3.94,1.49-3.03,3.06-6.03,4.14-9.23Z"/>
      </g>
      <path class="cls-54" d="M64.24,97.33c.43,2.32.57,4.68.32,7.03-.45-2.32-.52-4.68-.32-7.03Z"/>
      <path class="cls-70" d="M68.14,101.69c.41.91.77,1.85,1.05,2.82-.39.67-.78,1.34-1.16,2.01-.19-1.61-.09-3.22.12-4.83Z"/>
      <g>
        <path class="cls-55" d="M83.18,105.86c2.71-.47,5.02-2.04,7.65-2.79-1.27,4.32-4.67,7.64-8.42,9.92-2.85,1.65-5.92,3.1-8.12,5.65-2.84,3.25-5.75,6.44-8.45,9.81-2.04,2.61-4.55,5.03-5.46,8.32-1.63,5.31-3.58,10.56-4.55,16.04.96-.5,2.15-.77,2.76-1.74,1.47-2.24,1.66-4.99,2.57-7.45,1.36-.54,3.08-.12,4.18-1.23,2.06-1.89,3.87-4.06,6.08-5.8.91,4.67-1.73,9.21-5.13,12.21-1.34,1.2-3.4,1.9-3.83,3.85-.92,3.09-1.5,6.29-1.54,9.52,1.11-1.46,2.26-2.9,3.65-4.11-.13,3.2-.39,6.48-1.74,9.42-2.52,5.02-3.99,10.48-5.43,15.88,2.36-.36,2.34-3.27,4.2-4.31.96-.7,2.15-1.23,2.68-2.36,2.08-3.9,3.54-8.1,5.75-11.92,1.29.33,2.59.75,3.95.69,1.48-2.31,2.55-5.01,5.01-6.51.07.56.2,1.69.26,2.26-.1.61-.23,1.21-.38,1.82-2.55,2.45-4.78,5.19-7.13,7.82-1.13,1.27-2.25,2.57-3.06,4.07-4.22,7.72-8.52,15.4-12.81,23.08-1.93,3.37-1.76,7.35-2.27,11.08-.23,2.2-.83,4.33-1.18,6.52-.13,3.45-2.74,6.12-2.98,9.53-.67,5.25.91,10.36,1.9,15.45-1.03-1.36-2.51-2.42-3.21-3.99-.53-2.14-.44-4.37-.55-6.56-.29-5.37,1.34-10.57,1.9-15.87,1.43-3.14,2.21-6.63,1.73-10.08-.38-2.57-.71-5.18-.37-7.77.19-2.3,1.92-4.02,2.72-6.09.64-1.4.51-2.96.52-4.46-2.01,2.84-3.82,5.83-5.37,8.94-1.62,3.24-2.43,6.78-3.69,10.15-.31,1.03-1.13,1.75-1.95,2.39.04-3.04.66-6.03.91-9.05-.7-.25-1.39-.5-2.08-.74-.01-3.86,1.35-7.51,2.04-11.27,1.62-6.58,2.75-13.27,4.65-19.77-3.46,2.64-6.79,5.67-11.08,6.87.64-2.94,1.62-5.89,3.49-8.29,1.22-1.58,2.37-3.23,3.62-4.79,1.47-1.87,3.69-2.89,5.26-4.65,1.15-1.27,2.26-2.58,3.26-3.97,1.19-1.62,1.3-3.7,1.57-5.62-2.12,1.85-3.62,4.27-5.62,6.24-.73-.55-1.46-1.09-2.19-1.63.02-1.07.03-2.13.05-3.19,3.54-4.53,5.42-10.09,6.75-15.61-1.9-.06-3.8-.15-5.7-.13,1.87-.57,3.81-.19,5.71-.09.15-.17.46-.49.62-.65,2.03-1.14,4.27-1.94,6.01-3.53,2.6-2.07,4.03-5.14,6.07-7.69,1.42-1.86,3.66-2.72,5.64-3.82,3.8-2.08,7.52-4.49,10.43-7.73.66-.59.72-1.46.71-2.27Z"/>
        <path class="cls-55" d="M73.77,146.83c.35-1.98,1.98-3.93,4.08-3.96-.09,2.36-1.18,4.54-1.4,6.9,2.06-.45,4.81-1.6,6.17.75-2.34,3.22-5.11,6.11-7.75,9.09-2.17,2.4-5.09,4.7-8.54,4.19.45-2.36,1.72-4.41,3.12-6.32,2.27-3.15,3.49-6.89,4.32-10.64Z"/>
        <path class="cls-55" d="M33.6,204.46c1.16-1.1,1.2-3.15,2.9-3.72-1.27,9.79-2.87,19.54-4.48,29.29-1.15,6.64-.63,13.39-.2,20.06-.97.5-2.77.86-3.18-.51-.83-2.8-1.33-5.69-2.19-8.48-.98-3.19.71-6.28,1.21-9.39,1.11-4.53,1.55-9.19,1.36-13.85.16-4.61-.88-9.18-.59-13.78-.07-1.1,1.21-1.44,2.06-1.09,1.18.13,1.92,1.65,3.11,1.47Z"/>
      </g>
      <path class="cls-65" d="M82.57,105.99l.61-.13c.02.81-.05,1.68-.71,2.27-2.91,3.25-6.63,5.65-10.43,7.73-1.98,1.1-4.22,1.96-5.64,3.82-2.04,2.55-3.47,5.62-6.07,7.69-1.74,1.59-3.99,2.39-6.01,3.53-.08-.42-.24-1.25-.33-1.67.72-1.39,1.57-2.74,2.74-3.8.89-.95,2.11-1.74,2.45-3.08.92-2.92.14-6-.02-8.97,1.26.62,2.5,1.35,3.86,1.76,1.67.09,2.64-1.52,3.35-2.79.54-.09,1.07-.19,1.61-.29-.08.29-.25.87-.34,1.16,1.49-.47,2.86-1.2,4.25-1.91,1.88-.96,4.08-1.16,5.86-2.35,1.58-1.03,2.94-2.48,4.82-2.98Z"/>
      <path class="cls-7" d="M43.84,121.66c1.99,1.28,3.81,2.97,4.76,5.17-.25,1.89-1.14,3.74-2.5,5.09-1.99,1.82-4.78,2.18-7.11,3.39-.1.37-.33,1.1-.43,1.47-.19.93-.18,1.88-.29,2.83-.89.27-1.78.53-2.68.77.43-1.8.93-3.58,1.24-5.42.48-2.68-.31-5.36-.27-8.04,1.91,1.53,3.52,3.85,6.05,4.32,2.45-.63,2.62-3.68,3.36-5.69-.72-1.3-1.47-2.57-2.13-3.9Z"/>
      <path class="cls-11" d="M119.21,124.15c.19,1.38-.25,3.03.75,4.17,1.93,2.29,3.98,4.49,5.56,7.04,1.35,2.13,1.35,4.79,2.61,6.97,1.71,3.73,5.86,5.21,8.47,8.15,1.28,1.38,2.14,3.11,2.55,4.95-1.29-1-2.48-2.13-3.84-3.04-.27-.1-.82-.29-1.09-.39-.25,3.08.28,6.17-.19,9.23-1.34-1.94-2.85-3.76-4.45-5.49-1.11-1.41-3.56-.37-4.47-2.04-3.64-5.81-8.49-10.96-14.48-14.37.06-1.3.11-2.59.26-3.88.2-1.87,1.51-3.16,3-4.14,1.29-.76,1.47-2.31,1.69-3.63,1.6-.7,2.67-2.11,3.62-3.52Z"/>
      <path class="cls-4" d="M107.76,133.99c2.92-1.72,4.83-4.72,7.83-6.33-.23,1.32-.41,2.87-1.69,3.63-1.49.98-2.8,2.27-3,4.14-.18-.03-.54-.08-.72-.12-2.42,1.58-5.34,2.59-7.11,5-1.46,1.92-2.59,4.04-3.95,6.02-1.45,2.23-4.12,3.06-6.31,4.36,1.41,2.79,2.99,5.49,4.65,8.14.64-1.67,1.53-3.24,2.68-4.6,1.73,1.99,1.62,4.63,1.8,7.1.12,1.88,1.67,3.1,2.99,4.22,1.35,1.08,2.14,2.65,2.88,4.17-.24,1.02-.47,2.04-.67,3.07l-.49-.34c-.12-.17-.35-.49-.46-.65-.07-.33-.23-.98-.3-1.31-.41-.12-1.24-.37-1.65-.5-.52,1.8-.91,3.63-1.23,5.48-.71-5.43-1.73-10.81-2.2-16.26-1.35.88-1.88,2.45-2.55,3.83-2.04-1.79-3.16-4.46-5.43-6-1.51-.46-2.52,1.25-3.51,2.11-1.93,2.5-5.29,3.01-7.43,5.27-.95,1.18-2.44.99-3.75.68.28-.7.52-1.4.73-2.11.14-.6.27-1.21.38-1.82,1.77-1.67,2.78-3.91,3.68-6.13,1.14-1.75,2.25-3.65,4.09-4.75,2.45-1.49,5.26-2.33,7.55-4.1,3.37-2.32,5.55-5.88,8.35-8.78,1.36-1.46,3.14-2.41,4.82-3.44Z"/>
      <path class="cls-3" d="M47.32,131.82c.17-.04.51-.13.67-.17,1.9-.02,3.8.07,5.7.13-1.32,5.53-3.21,11.08-6.75,15.61-.52.1-1.05.21-1.58.32.97-4.87,2.82-9.48,4.38-14.17l-2.75-.65c.08-.26.24-.8.31-1.07Z"/>
      <path class="cls-39" d="M110.17,135.32c.18.03.54.09.72.12-.15,1.29-.21,2.58-.26,3.88,6,3.41,10.84,8.56,14.48,14.37.91,1.67,3.36.63,4.47,2.04,1.6,1.73,3.11,3.55,4.45,5.49.22.33.44.67.66,1,.36-3.28-.23-6.63.62-9.84,1.36.91,2.56,2.03,3.84,3.04l.08.07c.51,3.47.59,6.98.97,10.46.3,2.75.08,5.68,1.24,8.26.48,1.28,1.94,1.85,2.45,3.1,1.23,6.93-.29,14.12,1.58,20.95,1.73,6.16,4.64,12.07,4.96,18.56.56,6.55-1.88,12.8-2.68,19.23-.52,2.93-.39,5.9-.48,8.86-.14.28-.43.85-.57,1.13-2.14-6.71.76-13.47,1.04-20.21.48-3.67.51-7.4.06-11.08-.31-5.05-1.89-9.93-4.22-14.39-1.24-2.18-1.12-4.73-.89-7.13.55-3.42.67-6.93.06-10.35-.28-2.86-1.65-5.57-4.12-7.13-.67-2.77-.47-5.68-1.31-8.4-.4-.29-.8-.56-1.21-.81-.93,1.52-1.86,3.04-2.81,4.54-.88-1.4-1.77-2.8-2.42-4.32-.46-2.4-1.34-4.73-2.94-6.59-1.84-2.15-3.59-4.38-4.97-6.87-.41,1.28-.83,2.55-1.28,3.81-1.35-1.62-2.47-3.44-3.93-4.97-1.32-1.42-3.36-1.6-5.14-2.02-1.46-.71-2.01.88-1.33,1.98.27,1.47.73,2.94.73,4.46-.27,1.23-.87,2.36-1.15,3.58-.54,1.99-.48,4.09.07,6.07.05.23.14.7.19.93-.29,1.11-.24,2.29.41,3.27-.04.52-.09,1.04-.14,1.57-1.2-.75-2.4-1.49-3.58-2.25-.75-1.52-1.53-3.09-2.88-4.17-1.32-1.12-2.87-2.34-2.99-4.22-.18-2.47-.07-5.11-1.8-7.1-1.15,1.37-2.04,2.93-2.68,4.6-1.66-2.65-3.24-5.36-4.65-8.14,2.19-1.3,4.86-2.13,6.31-4.36,1.36-1.98,2.5-4.11,3.95-6.02,1.77-2.4,4.69-3.42,7.11-5Z"/>
      <path class="cls-64" d="M35.59,140.39c.9-.24,1.79-.5,2.68-.77-.96,3.9-3.8,6.9-5.33,10.54-1.21,2.88-2.41,5.77-3.17,8.82-.73,1.63-1.9,3-3.02,4.37-1.06,1.33-2.88,1.49-4.2,2.45-1.09,1.29-1.52,2.99-1.93,4.6-1.97,8.62-.72,17.53-1.55,26.27-2.29,1.96-3.08,4.91-3,7.84-.49.56-1.21,1.03-1.25,1.85-.69,4.81-.53,9.74.41,14.52.31,5.97.16,11.95.08,17.93l-.71.62c-.1-.15-.3-.45-.41-.6-1.13-4.87-.67-9.92-.96-14.88-.14-6.65-1.29-13.31-.38-19.95.44-4.54,2.33-8.77,2.95-13.27-1.12-1.45-.57-3.41-.33-5.06,1.69-6.08,1.83-12.42,2.47-18.65.19-2.56,2.06-4.5,2.86-6.86.91-2.18,1.08-4.62,2.11-6.72,1.3-1.08,3.25-.87,4.67-1.78,2.4-1.52,4.04-3.91,5.54-6.27.97-1.57,2.1-3.12,2.41-4.99h.04Z"/>
      <path class="cls-71" d="M111.26,152.1c-.68-1.1-.13-2.68,1.33-1.98-.39.7-.87,1.34-1.33,1.98Z"/>
      <path class="cls-57" d="M134.21,151.99c.27.09.82.29,1.09.39-.86,3.21-.26,6.56-.62,9.84-.22-.34-.44-.67-.66-1,.47-3.06-.06-6.15.19-9.23Z"/>
      <path class="cls-34" d="M89.33,159.17c.99-.86,1.99-2.57,3.51-2.11,2.27,1.53,3.39,4.2,5.43,6,.67-1.38,1.2-2.95,2.55-3.83.47,5.45,1.49,10.84,2.2,16.26.31-1.85.71-3.68,1.23-5.48.41.13,1.23.38,1.65.5.07.33.23.99.3,1.31.08,4.2-.71,8.51.41,12.62.51,2.3,2.04,4.18,2.79,6.38.1,3.7-1.35,7.39-.4,11.07.48,1.93.92,3.86,1.15,5.84-.25,2.91-.22,5.85-.02,8.77-.4,3.91-1.08,7.8-1.89,11.65-.81,2.7-.61,5.54-.01,8.26-.04,2.2-.77,4.3-1.27,6.42-.59,2.46-.77,5-.93,7.51-.29,3.7.13,7.44-.67,11.11-.11,1.09-.15,2.19-.24,3.29.06-5.33.01-10.65.06-15.97-1.18-.03-2.35-.05-3.53-.05-.03-1.16-.07-2.32-.04-3.48.94-3.03,2.72-5.8,3.03-9,.73-6.02,1.78-11.99,2.5-18.01-.68-.3-1.36-.6-2.04-.89-.35-5.55.81-11.03,1.38-16.52.2-2.52.99-5.04.47-7.56-.84.86-1.66,1.74-2.47,2.64-.22-4.43-.4-8.9.14-13.32.2-1.7.3-3.41.33-5.12-1,.91-1.98,1.86-2.95,2.8-1.28-4.77-1.68-9.77-1.53-14.69-.19.07-.55.22-.73.29-.55.22-1.12.4-1.69.52-1.62-1.14-2.47-3.05-4.01-4.27-1-.56-2.12-.84-3.2-1.2-.36,1.93-.57,3.91-1.26,5.76-1.42-.23-2.55-1.24-3.77-1.93-.61,1.13-1.12,2.34-1.93,3.35-1.52.74-3.47,1.08-4.28,2.75-.65,2.14-.45,4.47-1.34,6.54-1.62,1.28-3.38,2.38-4.82,3.89-1.87.64-2.35-1.61-2.96-2.84,2.03-4.73,4.76-9.11,7.75-13.29,1.31.31,2.8.5,3.75-.68,2.13-2.26,5.5-2.77,7.43-5.27Z"/>
      <path class="cls-20" d="M110.92,166.21c-.55-1.98-.61-4.08-.07-6.07.25,2.02.26,4.05.07,6.07Z"/>
      <path class="cls-1" d="M71.76,170.84c2.35-2.63,4.58-5.38,7.13-7.82-.22.71-.46,1.41-.73,2.11-2.99,4.17-5.71,8.56-7.75,13.29-2,2.25-3.79,4.68-5.33,7.26-1.41,2.39-2.04,5.1-2.79,7.74-2.37,3.23-.22,7.31,2.29,9.75-.12,1.28-.23,2.56-.41,3.84-.09.04-.28.13-.38.17l-.43-2.05c-3.2,1.97-5.39,5.28-6.49,8.82-.79,2.8-2.06,5.46-4.01,7.65-.51-1.95-.73-3.99-.41-6,.35-2.19.95-4.32,1.18-6.52.51-3.73.35-7.71,2.27-11.08,4.29-7.68,8.58-15.36,12.81-23.08.82-1.5,1.93-2.8,3.06-4.07Z"/>
      <path class="cls-43" d="M111.11,167.14c.84.91.88,2.17.41,3.27-.65-.98-.7-2.16-.41-3.27Z"/>
      <path class="cls-53" d="M114.37,169.4c1.61,2.48.92,5.51.02,8.1-1.68.03-3.36.06-5.05.1.13.57.25,1.15.38,1.73.88,4.05,1.81,8.09,2.87,12.09.32,1.27.75,2.51,1.15,3.75,1.22,3.04,1.5,6.4.09,9.43.35.99,1.51,2.03.82,3.12-.6,1.49-2.11,2.78-1.74,4.52.75,4.63,1.42,9.27,2.16,13.9.35,2.47.63,5.14-.45,7.48-.9,1.46-2.19,2.69-2.77,4.35-1.21,3.14-2.53,6.23-3.74,9.37-1.04,2.56-1.18,5.35-1.85,8.01-.17-1.67-.26-3.35-.26-5.03.17-2.52.34-5.05.93-7.51.5-2.12,1.23-4.22,1.27-6.42.22-2.75.08-5.51.01-8.26.81-3.85,1.49-7.74,1.89-11.65.72-2.88.62-5.87.02-8.77-.23-1.98-.67-3.91-1.15-5.84-.95-3.68.5-7.37.4-11.07-.75-2.19-2.28-4.07-2.79-6.38-.19-3.99.31-7.98.06-11.97l.49.34c.13.72.12,1.5.46,2.15,1.83,1.65,4.89,1.54,6.42-.47.25-1.68.28-3.38.35-5.08Z"/>
      <path class="cls-12" d="M106.18,171.81c.12.17.35.49.46.65.25,3.99-.24,7.98-.06,11.97-1.12-4.11-.33-8.42-.41-12.62Z"/>
      <path class="cls-67" d="M109.35,177.61c1.68-.04,3.36-.08,5.05-.1l-.18.42c-1.36.15-2.73.21-4.09.37-.1.26-.3.78-.4,1.04-.12-.58-.25-1.15-.38-1.73Z"/>
      <g>
        <path class="cls-19" d="M90.28,183.51c1.58-1.35,2.35-3.39,3.69-4.96.92,2.83.28,5.93,1.5,8.69.98,2.4,1.65,4.92,2,7.49,1.2-3.05,3.17-5.74,4-8.93.65,5.51,1.69,11.02,1.33,16.6-.07,4.87-2.24,9.45-2.17,14.34,0,5.45-.51,10.9-1.45,16.27-.04,4.14.62,8.26,1.14,12.36-.02.96-.08,1.92-.14,2.88-2.76,0-5.53-.13-8.29.01-.23-.79-.46-1.58-.7-2.37-1.03.78-2.04,1.6-3,2.46-2.71.15-5.43.12-8.12-.29-.2.17-.62.5-.83.66-3.78.07-7.56.03-11.34.07-1.7-9.85-3.14-19.76-5.11-29.56-.85-.04-1.69-.09-2.54-.14-.1,4.58.43,9.14.6,13.71.05,2.82,1.75,5.18,2.66,7.76.75,1.89,1.1,3.91,1.3,5.93-.73.75-1.45,1.52-2.14,2.31-1.63.02-3.27.03-4.9.04-1.3-4.44-3.29-8.71-3.85-13.33-.17-4.04.86-8,.83-12.04-.54-.28-1.09-.56-1.63-.83-.07-.26-.2-.79-.27-1.06,1.95-2.19,3.22-4.85,4.01-7.65,1.1-3.54,3.29-6.86,6.49-8.82l.43,2.05c.1-.04.29-.13.38-.17l.42.04c.09.65.19,1.31.28,1.97.01,1.72.86,3.28,2.4,4.09.08-1.54.08-3.08.2-4.62.04-.1.13-.3.17-.4.63-1.34.98-2.78,1.17-4.25.52-4.84,2.57-9.4,5.57-13.21.83,4.53.82,9.23,2.23,13.63.35-3.44.52-6.9,1.08-10.31.83-4.85,2.96-9.34,5.27-13.64.3-.81,1.22-.82,1.9-1.07.82,3.46,1.11,7.02,1.65,10.53.64-2.91.77-5.9,1.42-8.8.76.87,1.5,1.77,2.36,2.55Z"/>
        <path class="cls-19" d="M61.84,265.33c5.33-.09,10.66-.08,15.98-.12.25,1.39.8,2.69,1.9,3.61,1.1-.93,1.89-2.16,1.84-3.64,2.09-.03,4.17-.06,6.26-.07-.41,2.17-.81,4.34-1.31,6.5-.44-1.61-.77-3.24-1.07-4.87-1.32.81-2.13,2.11-2.62,3.54-.83,1.91-1.63,3.83-2.26,5.82-.98-1.05-1.78-2.73-3.47-2.47-.21,2.18-.23,4.42-.92,6.53-.17,0-.5.03-.67.04-.82-1.84-1.23-3.81-1.76-5.74-2.11-.3-4.22-.64-6.31-1.08-.64.51-1.28,1.03-1.92,1.56-1.62-3.04-2.5-6.39-3.68-9.6Z"/>
      </g>
      <path class="cls-13" d="M142.73,182.87c.62,3.42.49,6.93-.06,10.35-.23-3.44-.35-6.91.06-10.35Z"/>
      <path class="cls-41" d="M141.06,187.24c.68,1.99.39,4.12.18,6.16-.53-2.02-.41-4.1-.18-6.16Z"/>
      <g>
        <path class="cls-40" d="M113.74,195.18c1.16.88,2.38,1.77,3.14,3.05,2.64,4.33,3.84,9.32,5.14,14.17.35,1.32.52,2.69.66,4.06-1.74-2.76-2.59-5.97-4.41-8.68-.01,1.3.16,2.6.6,3.84.87,2.63,1.29,5.38,1.5,8.13-1.89-1.32-3.25-3.22-4.97-4.73.56,4.5,3.42,8.32,4.25,12.75-.2,1.02-1.13,1.68-1.72,2.48-1.34,1.38-1.89,3.27-2.72,4.95-.82,1.74-2.75,2.65-3.41,4.49-.68,1.88-1.79,3.7-1.9,5.71.6,1.18,1.56,2.11,2.41,3.11l-.63.03c-.12,5.92.04,11.84,0,17.75-.94,1.05-1.89,2.09-2.88,3.11.31-1.97.7-3.93,1.01-5.9-.67.48-1.32.97-1.95,1.51-.02-1.31-.03-2.61-.05-3.91-.82.1-1.65.21-2.47.33.8-3.67.38-7.4.67-11.11,0,1.68.09,3.36.26,5.03.67-2.66.81-5.45,1.85-8.01,1.21-3.14,2.53-6.23,3.74-9.37.58-1.66,1.87-2.89,2.77-4.35,1.09-2.34.81-5,.45-7.48-.73-4.63-1.41-9.27-2.16-13.9-.38-1.74,1.14-3.03,1.74-4.52.69-1.09-.47-2.13-.82-3.12,1.4-3.03,1.13-6.39-.09-9.43Z"/>
        <path class="cls-40" d="M137.87,215.61c.82,3.03.68,6.18,1.03,9.27.65,6.21-1.07,12.29-2.06,18.37-.22,1.93-1.74,3.28-2.91,4.7-.5.4-.87,1.3-1.67,1,.96-4.43,3.12-8.48,4.04-12.91.22-3.38.44-6.86-.34-10.19-2.87,2.26-2.07,6.26-3.08,9.37-1.08,3.2-2.66,6.21-4.14,9.23.47-3.75.37-7.73,2.21-11.15,3.05-5.57,5.46-11.51,6.93-17.7Z"/>
        <path class="cls-40" d="M103.63,281.54c4.09-1.52,6.16-5.58,8.05-9.2.07,4.05.06,8.09.06,12.14-1.49,1.67-2.53,3.67-3.41,5.71-3.39,1.84-6.42,4.26-9.6,6.44-2.28,1.57-4.92,2.47-7.54,3.3l.2-2.41c-.79.11-1.58.22-2.38.34.41-2.04,1.89-3.48,3.2-4.97.07-1.63-.65-3.33.03-4.91.64-1.72,1.96-3.04,3.13-4.41.08,1.02.16,2.04.25,3.06,2.66-2.56,4.67-5.7,7.19-8.39.23,1.1.52,2.2.81,3.3Z"/>
        <path class="cls-40" d="M84.11,291.92c1.44-1.85,3.06-3.56,4.78-5.16.06,1.51-.02,3.06-.59,4.49-.59,2.31-3.17,3.01-4.79,4.44.08-1.26-.29-2.73.61-3.78Z"/>
      </g>
      <path class="cls-46" d="M67.63,208.08c-.44-1.57-.72-3.54,1.17-4.25-.19,1.46-.54,2.91-1.17,4.25Z"/>
      <path class="cls-32" d="M14.83,206.36c.04-.82.76-1.29,1.25-1.85-.08,5.45.13,10.98-.84,16.37-.94-4.78-1.1-9.71-.41-14.52Z"/>
      <path class="cls-61" d="M110.12,207.71c.6,2.89.7,5.89-.02,8.77-.2-2.92-.23-5.85.02-8.77Z"/>
      <path class="cls-10" d="M65.64,210.47c.61-.66,1.23-1.31,1.81-1.99-.12,1.53-.12,3.08-.2,4.62-1.53-.81-2.38-2.36-2.4-4.09.25.49.51.98.78,1.46Z"/>
      <g>
        <path class="cls-3" d="M48.47,210.68c.41,1.14.77,2.29,1.02,3.48-.57,5.29-2.2,10.49-1.9,15.87.12,2.19.02,4.42.55,6.56.71,1.57,2.19,2.63,3.21,3.99.55,2.66,1.51,5.2,2.41,7.76l.19.52c-2.48.04-4.95.06-7.43.06.12-3.01.25-6.05-.25-9.03-.6-3.4-.5-6.91-1.52-10.22.11-3.06.14-6.12.06-9.18,1.09-3.32,1.54-6.91,3.65-9.8Z"/>
        <path class="cls-3" d="M54.61,265.28c1.12,0,2.24,0,3.37.02.05,2.9.04,5.86.99,8.64,1.68,4.8,4.31,9.17,6.76,13.6-2.58-1.42-5.59-2.29-7.54-4.62-.99-1.16-2.19-2.12-3.51-2.88,0-.42-.02-1.27-.02-1.69,1.05.35,2.11.71,3.17,1.06.28-.71.94-1.42.57-2.22-.98-2.52-2.08-5.05-3.75-7.2-.02-1.57-.03-3.14-.03-4.71Z"/>
        <path class="cls-3" d="M83.29,325.27c2.21.01,4.42.02,6.62.07,2.87.18,5.75.06,8.63.08-.65,3.52-1.6,6.98-2.51,10.45-3.79,1.44-7.71,2.48-11.53,3.83,1.78.11,3.55.24,5.33.3-2.63.68-5.35-.06-8.01.33-2.13.55-4.09,1.58-6.22,2.13-.12-.88-.24-1.76-.39-2.62.29.67.65,1.84,1.6,1.66,2.77-.4,4.85-2.52,6.66-4.49-.59.95-1.19,1.9-1.81,2.84.72-.03,1.44-.06,2.16-.09.98-2.42,2.1-4.8,3.5-7.01,1.36-2.13,1.89-4.63,2.26-7.09-.39-.02-1.16-.05-1.55-.07-.2.59-.41,1.19-.6,1.79.05-.51.15-1.52.21-2.02-1.46.01-2.91.03-4.37.06v-.14Z"/>
      </g>
      <path class="cls-28" d="M144.6,218.75c-.61-2.57-.63-5.24.04-7.8.12,2.6.2,5.21-.04,7.8Z"/>
      <path class="cls-44" d="M147.73,225.82c-.39-3.68-.51-7.42.06-11.08.45,3.68.42,7.41-.06,11.08Z"/>
      <path class="cls-18" d="M44.76,229.66c-.75-2.97-.93-6.24.06-9.18.08,3.06.06,6.12-.06,9.18Z"/>
      <path class="cls-42" d="M108.2,236.39c-.6-2.72-.79-5.56.01-8.26.07,2.75.21,5.51-.01,8.26Z"/>
      <path class="cls-25" d="M114.39,248.47c.79-2.36,1.6-4.73,2.64-7,.02,2.35-.25,4.69-.64,7.01-.67,0-1.34,0-2,0Z"/>
      <path class="cls-6" d="M100.33,245.36c.16.96.34,1.92.51,2.89.22-1.02.45-2.03.72-3.02-.02,1.15.01,2.32.04,3.48-7.45.06-14.91.17-22.36.02.21-.17.62-.5.83-.66,2.69.41,5.4.44,8.12.29,1.24-.02,2.47-.04,3.7-.09,2.76-.14,5.53,0,8.29-.01.06-.96.12-1.92.14-2.88Z"/>
      <path class="cls-56" d="M88.19,248.35c.97-.86,1.97-1.68,3-2.46.24.79.47,1.57.7,2.37-1.24.05-2.47.07-3.7.09Z"/>
      <path class="cls-23" d="M34.98,260.35c.72.61,1.44,1.21,2.16,1.83.03,2.58,0,5.17-.03,7.76-.92-3.15-1.5-6.38-2.13-9.58Z"/>
      <path class="cls-15" d="M54.38,264.99c14.72-.09,29.45-.35,44.17-.08-.23.02-.67.04-.89.06-3.27.19-6.55.08-9.83.15-2.09.02-4.17.04-6.26.07-1.25.01-2.5.02-3.75.03-5.33.03-10.66.02-15.98.12-1.29,0-2.58-.02-3.86-.03-1.13-.02-2.25-.02-3.37-.02,0,1.57.02,3.14.03,4.71-.03,2.79-.05,5.58.01,8.36,0,.43.02,1.28.02,1.69,0,.94-.01,1.89-.02,2.84-.02,2.26,0,4.52,0,6.77,1.21,0,2.42,0,3.63.01,1.25.02,2.51.07,3.76.1-2.55.12-5.1.18-7.64.18-.09-8.33-.2-16.65-.04-24.96Z"/>
      <path class="cls-49" d="M99.51,264.87c1.47-.07,2.94-.07,4.42-.06-1.41.8-2.73,1.76-4.08,2.67-.12-.87-.23-1.74-.34-2.61Z"/>
      <path class="cls-16" d="M57.98,265.31c1.29.01,2.57.03,3.86.03,1.18,3.21,2.06,6.56,3.68,9.6.64-.52,1.28-1.04,1.92-1.56,2.09.44,4.2.78,6.31,1.08.52,1.93.94,3.9,1.76,5.74.17-.01.5-.03.67-.04.69-2.11.71-4.35.92-6.53,1.69-.26,2.49,1.42,3.47,2.47.63-1.99,1.44-3.91,2.26-5.82.78.04,1.56.09,2.35.14.22,3.14-.29,6.29.13,9.41-1.56,1.97-3.24,3.85-4.99,5.66-2.02,2.16-4.97,2.93-7.56,4.15-2.1.07-4.21.06-6.32.08-.23-.73-.45-1.46-.71-2.18-2.45-4.43-5.08-8.8-6.76-13.6-.95-2.78-.94-5.74-.99-8.64Z"/>
      <path class="cls-51" d="M77.82,265.22c1.25-.01,2.5-.02,3.75-.03.04,1.49-.74,2.71-1.84,3.64-1.1-.92-1.65-2.22-1.9-3.61Z"/>
      <path class="cls-22" d="M129.16,269.79c.73-.43,1.47-.84,2.22-1.26-.36,1.95-1.03,3.84-2.18,5.47,0-1.41-.03-2.81-.04-4.21Z"/>
      <path class="cls-29" d="M26.77,270.48c1.5,2.31,2.93,4.68,4,7.24,1.37,3.13,3.79,5.61,6.4,7.74,0,.77-.01,1.55-.02,2.34-2.15-1.85-4.14-3.9-5.89-6.12-2.2-2.82-3.46-6.22-4.27-9.67-.12-.5-.19-1.01-.22-1.52Z"/>
      <path class="cls-14" d="M54.64,269.99c1.67,2.15,2.77,4.68,3.75,7.2.37.8-.29,1.51-.57,2.22-1.06-.35-2.11-.71-3.17-1.06-.06-2.78-.04-5.57-.01-8.36Z"/>
      <path class="cls-24" d="M99.65,272.81c.77-.11,2.53-.65,2.06.78-1.17,2.24-2.8,4.2-4.34,6.19.59-2.34.22-5.31,2.28-6.97Z"/>
      <path class="cls-60" d="M54.67,280.05c1.32.76,2.52,1.72,3.51,2.88,1.95,2.33,4.96,3.2,7.54,4.62.25.72.47,1.45.71,2.18-1.46.01-2.92.03-4.38.05-1.25-.03-2.51-.08-3.76-.1-.69-2.52-2.1-4.71-3.64-6.79,0-.95.01-1.9.02-2.84Z"/>
      <path class="cls-68" d="M54.66,282.89c1.53,2.07,2.95,4.27,3.64,6.79-1.21-.02-2.42-.01-3.63-.01-.01-2.26-.02-4.52,0-6.77Z"/>
      <path class="cls-27" d="M108.34,290.19c.88-2.04,1.92-4.04,3.41-5.71.07,3.18.06,6.35.06,9.53-.37.24-1.1.73-1.47.97-.44-1.51-.8-3.05-1.23-4.56-.19-.06-.57-.17-.76-.23Z"/>
    </g>
    <path class="cls-35" d="M56.26,304.24c1.49-.07,2.97-.12,4.46-.11-.59,1.34-1.02,2.73-1.54,4.1-.25.08-.76.23-1,.31-.03-.95-.02-1.89-.12-2.83-.51-.59-1.18-1-1.79-1.47Z"/>
    <path class="cls-37" d="M60.72,304.13c3.99.06,7.97,0,11.96-.02-1.16,1.65-2.2,3.46-3.81,4.73-1.21,1-3.19-.03-4.2,1.31-1.78,2.11-3.83,3.98-6.02,5.66-.3-2.55.24-5.06.53-7.58.52-1.37.96-2.76,1.54-4.1Z"/>
  </g>
  <path class="cls-47" d="M55.43,312.89c.25-1.41.13-3.45,1.77-4.02.2,0,.59,0,.78,0,.5,6,.68,12.02,1.38,18.01.87-1.55,1.21-3.31,1.56-5.03,1.26-.12,2.62.09,3.79-.49.88-1.58,1.66-3.24,2.85-4.63.4-.05,1.19-.15,1.58-.2-.36,5.2,1.36,10.16,2.74,15.08.69,2.43,2,4.6,3.2,6.8l.13.44c.15.86.27,1.74.39,2.62,2.13-.55,4.09-1.58,6.22-2.13,2.66-.38,5.37.35,8.01-.33.2-.04.6-.12.8-.16l1.01-.2c-.89,1.19-1.77,2.55-3.19,3.17-1.99.23-4.13-.84-6.01.08-2.03,1.57-4.71,1.47-7.13,1.86-.92-1.82-1.85-3.62-2.8-5.41-5.07.19-10.49-1.59-13.51-5.88-4.02-5.66-3.85-12.95-3.58-19.57Z"/>
  <path class="cls-17" d="M88.04,325.58c.39.02,1.16.06,1.55.07-.38,2.46-.9,4.96-2.26,7.09-1.4,2.21-2.52,4.59-3.5,7.01-.72.03-1.44.06-2.16.09.61-.94,1.21-1.89,1.81-2.84,1.93-2.92,3.3-6.19,3.97-9.63.19-.6.39-1.2.6-1.79Z"/>
  <path class="cls-60" d="M98.54,325.42c.86,0,1.71-.01,2.57-.02-.24,2.25-.37,4.56-1.14,6.71-.42,1.24-.99,2.48-.81,3.83-1.2,1.23-2.33,2.78-4.12,3.14-1.47.25-2.98.34-4.42.76-.2.04-.6.12-.8.16-1.78-.07-3.55-.19-5.33-.3,3.82-1.35,7.74-2.4,11.53-3.83.92-3.47,1.86-6.93,2.51-10.45Z"/>
  <path class="cls-30" d="M101.11,325.4c.34,0,1.03.01,1.38.02-.01,3.72-.63,7.75-3.32,10.53-.19-1.35.39-2.59.81-3.83.77-2.15.89-4.46,1.14-6.71Z"/>
  <g>
    <polygon class="cls-5" points="111.66 248.54 129.24 248.54 129.24 366.06 61.23 366.03 61.23 349.9 111.68 349.9 111.68 325.44 83.28 325.4 83.29 309.91 111.68 309.9 111.66 248.54"/>
    <polygon class="cls-5" points="54.69 366.26 37.11 366.26 37.11 248.73 105.13 248.77 105.13 264.9 54.68 264.9 54.68 289.36 83.07 289.4 83.07 304.89 54.68 304.9 54.69 366.26"/>
  </g>
  <g>
    <path class="cls-48" d="M0,397.68v-1.28c.71-.01,1.13-.11,1.24-.29.09-.12.14-.48.16-1.09.07-1.99.1-4.28.1-6.89,0-1.93-.01-4-.04-6.2-.03-2.21-.08-3.48-.14-3.82-.03-.15-.08-.26-.14-.32-.1-.11-.49-.2-1.18-.28v-1.28c.98.05,1.83.08,2.53.08,1.03,0,2.11-.01,3.25-.04.75-.02,1.37-.03,1.88-.03.36,0,.71.02,1.04.06l.08.32c-.12,1.27-.19,2.77-.22,4.5h-.71l-.07-1.64c-.02-.52-.05-.84-.11-.96-.06-.12-.27-.24-.62-.36s-.86-.18-1.53-.18c-.49,0-1,.05-1.55.14-.06,1.73-.09,2.95-.09,3.66l.02,3.29v.7c.33.03.73.05,1.21.05.86,0,1.37-.04,1.55-.11.09-.04.15-.12.19-.25.06-.22.11-.86.15-1.92h.72c-.02.9-.03,1.79-.03,2.68,0,.84,0,2.17.03,4h-.72c-.05-1.33-.1-2.1-.16-2.32-.03-.12-.1-.21-.21-.26-.27-.13-.82-.2-1.64-.2l-1.1.05.03,5.86c.02,1.41.06,2.23.12,2.46.04.14.1.25.18.32.11.1.58.19,1.4.28v1.28c-.9-.07-1.74-.11-2.52-.11-.7,0-1.73.04-3.11.11Z"/>
    <path class="cls-48" d="M9.56,397.68v-1.28c.65-.1,1.02-.2,1.12-.29.06-.06.11-.16.13-.29.06-.24.1-1.07.12-2.48.03-2.18.04-3.9.04-5.15,0-1.69-.01-3.84-.03-6.45-.02-1.95-.08-3.14-.16-3.58-.02-.13-.07-.23-.13-.31-.09-.1-.45-.21-1.09-.34v-1.28c1.16.07,1.91.11,2.25.11l4.21-.11c.91,0,1.58.16,2,.48.42.32.75.83.99,1.54.24.71.37,1.54.37,2.5,0,1.22-.19,2.29-.58,3.21-.39.92-1.07,1.74-2.03,2.45l1.79,4.91,1.4,3.76c.26.61.46.98.59,1.11.13.13.34.2.63.21v1.18h-.5c-1.42.04-2.34.07-2.75.11-.49-1.42-1.22-3.47-2.19-6.16l-1.73-4.79c.05-.17.09-.36.13-.55.22.05.39.08.5.08.52,0,1.03-.38,1.54-1.15s.76-1.86.76-3.28c0-1.24-.2-2.19-.6-2.88-.4-.68-1-1.03-1.8-1.03-.25,0-.6.04-1.03.11l-.06,4.51-.07,5.72c0,1.3.03,2.95.08,4.97.04,1.52.09,2.37.13,2.56.03.13.09.24.18.32.12.12.5.21,1.14.28v1.28c-1.01-.07-1.9-.11-2.68-.11-.83,0-1.72.04-2.67.11Z"/>
    <path class="cls-48" d="M22,397.68v-1.28c.77-.07,1.2-.19,1.31-.35.1-.16.16-.57.18-1.21.04-1.35.07-3.85.07-7.52,0-1.41-.01-3.44-.03-6.12-.01-1.82-.03-2.83-.07-3s-.09-.31-.18-.39c-.12-.11-.55-.21-1.28-.29v-1.28c1.16.07,2.04.11,2.65.11,1.05,0,2.01-.04,2.86-.11v1.28c-.77.08-1.2.19-1.3.33-.1.14-.16.46-.19.96-.04.98-.07,2.96-.07,5.95,0,3.97,0,6.75.03,8.31.02,1.56.07,2.5.15,2.79.03.13.1.24.21.31.11.08.5.16,1.17.24v1.28l-.99-.05c-.63-.04-1.19-.06-1.68-.06l-2.83.11Z"/>
    <path class="cls-48" d="M29.26,397.68v-.83c.3-.24.57-.53.82-.86.11-1.59.17-4.93.17-10.03,0-3.48-.02-5.78-.06-6.91-.02-.6-.07-.98-.17-1.14-.1-.16-.51-.29-1.25-.41v-1.28c1.32.09,2.37.14,3.13.14l4.63-.14c.49,0,.93.04,1.32.11l.06.17c-.12,1.12-.21,2.62-.27,4.48h-.66c-.03-1.49-.06-2.28-.1-2.38-.04-.1-.16-.2-.38-.29-.47-.18-1.18-.28-2.14-.28-.47,0-1.02.04-1.65.11-.07,3.15-.12,5.66-.13,7.52.6.07,1.16.11,1.69.11.78,0,1.25-.05,1.4-.14.1-.06.16-.21.2-.44.03-.18.07-.83.12-1.93h.72c-.03,1.73-.04,2.85-.04,3.37l.04,3.45h-.72c-.04-1.34-.09-2.12-.15-2.32-.03-.12-.11-.21-.23-.26-.28-.11-.91-.17-1.89-.17-.31,0-.67.04-1.08.11-.01.54-.02,1.09-.02,1.65,0,2.9.03,5.14.08,6.7l1.67.05c.95,0,1.82-.09,2.6-.28.14-.94.27-2.01.4-3.21h.7c-.13,1.81-.2,3.56-.23,5.23-.51.07-1,.11-1.47.11-.31,0-.92-.02-1.83-.05-.85-.04-1.63-.05-2.34-.05-.94,0-1.92.04-2.96.11Z"/>
    <path class="cls-48" d="M39.21,397.68v-1.28c.68-.05,1.08-.13,1.2-.25.08-.08.14-.21.18-.4.06-.25.1-1.11.12-2.58.03-2.45.04-4.29.04-5.53l-.02-6.47c0-1.71-.03-2.7-.09-2.97-.03-.15-.09-.27-.16-.34-.11-.12-.54-.24-1.27-.35v-1.28c.88.05,1.53.08,1.95.08.47,0,1-.02,1.59-.08,1.29,3,2.76,6.26,4.39,9.78,1.09,2.35,2.02,4.29,2.81,5.82v-6.07c0-2.3-.01-4.28-.04-5.95-.02-.99-.07-1.6-.13-1.82-.03-.12-.1-.21-.19-.26-.09-.05-.48-.12-1.18-.21v-1.28c.61.05,1.22.08,1.82.08.83,0,1.58-.02,2.25-.08v1.28c-.62.07-1,.15-1.13.25-.07.05-.13.12-.18.21-.04.09-.08.21-.1.35-.04.25-.06,1.03-.07,2.35l-.03,6.12-.02,6.16c0,1.65.02,3.3.06,4.95l-.11.21c-.68-.22-1.16-.37-1.45-.44-1.44-2.9-3.18-6.55-5.22-10.94-1.03-2.22-1.87-4.09-2.5-5.61v5.94c0,1.62.01,3.57.04,5.85.02,1.68.06,2.65.12,2.9.02.11.06.2.13.26.11.11.51.21,1.21.31v1.28c-.9-.07-1.55-.11-1.94-.11-.32,0-1.02.04-2.09.11Z"/>
    <path class="cls-48" d="M54.17,397.68v-.79c.39-.41.66-.71.82-.92.08-1.79.12-5.15.12-10.07,0-2.13-.01-3.91-.04-5.34-.02-1.43-.06-2.25-.11-2.45-.02-.1-.06-.18-.11-.23-.08-.08-.5-.2-1.24-.37v-1.28c.85.05,1.82.08,2.92.08l4.15-.08c1.51,0,2.65.35,3.44,1.04.78.69,1.4,1.75,1.86,3.18.46,1.43.69,3.16.69,5.2,0,2.62-.36,4.88-1.08,6.77s-1.59,3.25-2.62,4.05-2.13,1.21-3.31,1.21l-3.19-.11c-.51,0-1.28.04-2.31.11ZM57.58,395.78c.47.15.95.23,1.45.23,1.25,0,2.2-.33,2.86-.98.66-.65,1.19-1.72,1.59-3.2.41-1.48.61-3.3.61-5.46,0-2.84-.4-5.01-1.21-6.49-.71-1.32-1.88-1.99-3.49-1.99-.35,0-.95.05-1.81.15l-.07,9.52c0,4.01.02,6.75.07,8.21Z"/>
    <path class="cls-48" d="M71.37,374.93l.28.46c-.62,2.16-1.07,3.69-1.35,4.59-.28.9-.65,1.98-1.09,3.23-.33.27-.72.56-1.16.86l-.27-.47c.7-2.58,1.14-5.13,1.31-7.65.94-.28,1.7-.63,2.28-1.02Z"/>
    <path class="cls-48" d="M73.32,391.22h.74c0,1.51.03,2.39.08,2.65.05.26.21.6.48,1.02.27.42.63.77,1.07,1.03.44.27.89.4,1.35.4.79,0,1.42-.38,1.9-1.14.47-.76.71-1.72.71-2.86,0-1.05-.16-1.85-.47-2.41-.32-.56-.93-.96-1.82-1.19-1.32-.35-2.22-.72-2.68-1.13-.46-.41-.83-1.02-1.09-1.84-.27-.82-.4-1.79-.4-2.94,0-1.92.37-3.54,1.11-4.87.74-1.33,1.93-2,3.56-2,.64,0,1.21.09,1.7.26.5.17.99.46,1.49.86l.08.37c-.09.64-.15,1.22-.19,1.74s-.07,1.42-.1,2.69h-.72c-.03-1.57-.07-2.45-.13-2.64-.11-.34-.38-.69-.81-1.06-.44-.37-.93-.56-1.49-.56-.77,0-1.36.34-1.79,1.02s-.64,1.55-.64,2.62c0,.65.09,1.22.26,1.7s.42.84.73,1.07c.31.23.98.49,2.01.79.93.25,1.56.5,1.89.75.54.4.96,1,1.24,1.82.28.81.42,1.84.42,3.09,0,2.16-.45,3.95-1.36,5.38-.91,1.43-2.15,2.15-3.73,2.15-.7,0-1.34-.12-1.91-.37-.57-.25-1.16-.65-1.77-1.21.1-.71.17-1.36.2-1.94.04-.81.07-1.89.08-3.26Z"/>
    <path class="cls-48" d="M87.57,397.68v-1.28c.71-.01,1.13-.11,1.24-.29.09-.12.14-.48.16-1.09.07-1.99.1-4.28.1-6.89,0-1.93-.01-4-.04-6.2-.03-2.21-.08-3.48-.14-3.82-.03-.15-.08-.26-.14-.32-.1-.11-.49-.2-1.18-.28v-1.28c.98.05,1.83.08,2.53.08,1.03,0,2.11-.01,3.25-.04.75-.02,1.37-.03,1.88-.03.36,0,.71.02,1.04.06l.08.32c-.12,1.27-.19,2.77-.22,4.5h-.71l-.07-1.64c-.02-.52-.05-.84-.11-.96s-.27-.24-.62-.36-.86-.18-1.53-.18c-.49,0-1,.05-1.55.14-.06,1.73-.09,2.95-.09,3.66l.02,3.29v.7c.33.03.73.05,1.21.05.86,0,1.37-.04,1.55-.11.09-.04.15-.12.19-.25.06-.22.11-.86.15-1.92h.72c-.02.9-.03,1.79-.03,2.68,0,.84,0,2.17.03,4h-.72c-.05-1.33-.1-2.1-.16-2.32-.03-.12-.1-.21-.21-.26-.27-.13-.82-.2-1.64-.2l-1.1.05.03,5.86c.02,1.41.06,2.23.12,2.46.04.14.1.25.18.32.11.1.58.19,1.4.28v1.28c-.9-.07-1.74-.11-2.52-.11-.7,0-1.73.04-3.11.11Z"/>
    <path class="cls-48" d="M103.6,397.99c-2.07,0-3.65-.97-4.75-2.9-1.1-1.93-1.65-4.59-1.65-7.97,0-2.37.27-4.38.8-6.03.53-1.66,1.27-2.93,2.22-3.81s2.16-1.33,3.65-1.33,2.6.43,3.51,1.28c.91.85,1.61,2.03,2.1,3.55.49,1.51.74,3.37.74,5.57,0,2.38-.27,4.45-.81,6.18-.54,1.74-1.3,3.08-2.28,4.04s-2.15,1.43-3.52,1.43ZM103.92,396.33c1.13,0,2.03-.76,2.7-2.27s1.01-3.82,1.01-6.91c0-3.24-.38-5.73-1.15-7.47-.62-1.4-1.58-2.1-2.88-2.1-1.21,0-2.15.73-2.81,2.19-.66,1.46-1,3.7-1,6.73,0,2.18.18,4.03.55,5.55.37,1.51.83,2.61,1.39,3.27s1.3,1,2.2,1Z"/>
    <path class="cls-48" d="M117.95,397.99c-2.07,0-3.65-.97-4.75-2.9-1.1-1.93-1.65-4.59-1.65-7.97,0-2.37.27-4.38.8-6.03.53-1.66,1.27-2.93,2.22-3.81s2.16-1.33,3.65-1.33,2.6.43,3.51,1.28c.91.85,1.61,2.03,2.1,3.55.49,1.51.74,3.37.74,5.57,0,2.38-.27,4.45-.81,6.18-.54,1.74-1.3,3.08-2.28,4.04s-2.15,1.43-3.52,1.43ZM118.27,396.33c1.13,0,2.03-.76,2.7-2.27.67-1.52,1.01-3.82,1.01-6.91,0-3.24-.38-5.73-1.15-7.47-.62-1.4-1.58-2.1-2.88-2.1-1.21,0-2.15.73-2.81,2.19-.66,1.46-1,3.7-1,6.73,0,2.18.18,4.03.55,5.55.37,1.51.83,2.61,1.39,3.27s1.3,1,2.2,1Z"/>
    <path class="cls-48" d="M126.42,397.68v-.79c.39-.41.66-.71.82-.92.08-1.79.12-5.15.12-10.07,0-2.13-.01-3.91-.04-5.34s-.06-2.25-.11-2.45c-.02-.1-.06-.18-.11-.23-.08-.08-.5-.2-1.24-.37v-1.28c.85.05,1.82.08,2.92.08l4.15-.08c1.51,0,2.65.35,3.44,1.04.78.69,1.4,1.75,1.86,3.18.46,1.43.69,3.16.69,5.2,0,2.62-.36,4.88-1.08,6.77-.72,1.9-1.59,3.25-2.62,4.05s-2.13,1.21-3.31,1.21l-3.19-.11c-.51,0-1.28.04-2.3.11ZM129.83,395.78c.47.15.95.23,1.45.23,1.25,0,2.2-.33,2.86-.98.66-.65,1.19-1.72,1.59-3.2.41-1.48.61-3.3.61-5.46,0-2.84-.4-5.01-1.21-6.49-.71-1.32-1.88-1.99-3.49-1.99-.35,0-.95.05-1.81.15l-.07,9.52c0,4.01.02,6.75.07,8.21Z"/>
    <path class="cls-48" d="M145.09,391.22h.74c0,1.51.03,2.39.08,2.65.05.26.21.6.48,1.02.27.42.63.77,1.07,1.03.44.27.89.4,1.35.4.79,0,1.42-.38,1.9-1.14.47-.76.71-1.72.71-2.86,0-1.05-.16-1.85-.47-2.41-.32-.56-.93-.96-1.82-1.19-1.32-.35-2.22-.72-2.68-1.13s-.83-1.02-1.09-1.84c-.27-.82-.4-1.79-.4-2.94,0-1.92.37-3.54,1.11-4.87.74-1.33,1.93-2,3.56-2,.64,0,1.21.09,1.7.26.5.17.99.46,1.49.86l.08.37c-.09.64-.15,1.22-.19,1.74s-.07,1.42-.1,2.69h-.72c-.03-1.57-.07-2.45-.13-2.64-.11-.34-.38-.69-.81-1.06-.43-.37-.93-.56-1.49-.56-.77,0-1.36.34-1.79,1.02-.42.68-.63,1.55-.63,2.62,0,.65.09,1.22.26,1.7s.42.84.73,1.07c.31.23.98.49,2.01.79.93.25,1.56.5,1.89.75.54.4.96,1,1.24,1.82.28.81.42,1.84.42,3.09,0,2.16-.46,3.95-1.36,5.38s-2.15,2.15-3.73,2.15c-.7,0-1.34-.12-1.91-.37-.57-.25-1.16-.65-1.77-1.21.1-.71.17-1.36.2-1.94.04-.81.07-1.89.08-3.26Z"/>
    <path class="cls-48" d="M156.56,393.11c.37,0,.69.24.95.71.26.47.39,1.05.39,1.74s-.13,1.25-.39,1.73c-.26.48-.58.72-.95.72s-.69-.24-.95-.72c-.26-.48-.4-1.05-.4-1.73s.13-1.25.39-1.73c.26-.48.58-.72.96-.72Z"/>
    <path class="cls-48" d="M159.24,396.29c.53-.05.85-.15.98-.29.08-.1.22-.49.4-1.16.34-1.33.78-3.16,1.31-5.52l2.98-13.25h1.24l3.8,16.42c.49,2.07.8,3.21.91,3.41s.47.33,1.06.4v1.39c-.91-.07-1.78-.11-2.59-.11-.97,0-1.89.04-2.77.11v-1.39c.67-.05,1.05-.12,1.16-.2s.16-.24.16-.46c0-.19-.12-.84-.35-1.94l-.55-2.55c-.7-.03-1.47-.05-2.33-.05-.75,0-1.43.02-2.04.05l-.37,1.72c-.1.47-.22,1.17-.37,2.09-.03.21-.05.4-.05.57,0,.23.05.39.16.49s.5.19,1.18.29v1.39c-.55-.07-1.23-.11-2.05-.11s-1.4.04-1.86.11v-1.39ZM164.76,381.45l-1.78,7.86c.52.05,1.09.08,1.71.08s1.27-.03,1.87-.08l-1.8-7.86Z"/>
    <path class="cls-48" d="M174.27,393.11c.37,0,.69.24.95.71.26.47.39,1.05.39,1.74s-.13,1.25-.39,1.73c-.26.48-.58.72-.95.72s-.69-.24-.95-.72c-.26-.48-.4-1.05-.4-1.73s.13-1.25.39-1.73c.26-.48.58-.72.96-.72Z"/>
  </g>
</svg>